REM DIRINDEX 1\2\4\18,1\2\4\19,1\2\5\20,1\2\5\21,1\2\6\22,1\2\7\23,1\2\8\24,1\2\8\25,1\2\9\26,1\2\10\27,1\3\11\28,1\3\11\29,1\3\11\30,1\3\11\31,1\3\12\32,1\3\12\33,1\3\12\34,1\3\12\35,1\3\13\36,1\3\13\37,1\3\14\38,1\3\14\39,1\3\15\40,1\3\15\41,1\3\15\42,1\3\16\43,1\3\16\44,1\3\17\45,1\3\17\46
REM DIRNAME cjc023,folder01,folder02,folder03,folder04,folder05,folder06,folder07,folder08,folder09,folder10,folder11,folder12,folder13,folder14,folder15,folder16,folder17,folder18,folder19,folder20,folder21,folder22,folder23,folder24,folder25,folder26,folder27,folder28,folder29,folder30,folder31,folder32,folder33,folder34,folder35,folder36,folder37,folder38,folder39,folder40,folder41,folder42,folder43,folder44,folder45
TITLE ""
FILE "14.mp3" MP3
  TRACK 01 AUDIO
    TITLE "0:"
    INDEX 01 00:00:00
  TRACK 02 AUDIO
    TITLE "40:cjc023_7121"
    INDEX 01 00:00:13
  TRACK 03 AUDIO
    TITLE "0:"
    INDEX 01 00:01:34
  TRACK 04 AUDIO
    TITLE "41:cjc023_7122"
    INDEX 01 00:02:06
  TRACK 05 AUDIO
    TITLE "0:"
    INDEX 01 00:03:66
  TRACK 06 AUDIO
    TITLE "42:cjc023_7123"
    INDEX 01 00:04:11
  TRACK 07 AUDIO
    TITLE "0:"
    INDEX 01 00:06:22
  TRACK 08 AUDIO
    TITLE "41:cjc023_7124"
    INDEX 01 00:07:00
  TRACK 09 AUDIO
    TITLE "0:"
    INDEX 01 00:10:06
  TRACK 10 AUDIO
    TITLE "42:cjc023_7125"
    INDEX 01 00:10:29
  TRACK 11 AUDIO
    TITLE "0:"
    INDEX 01 00:14:19
  TRACK 12 AUDIO
    TITLE "40:cjc023_7126"
    INDEX 01 00:15:15
  TRACK 13 AUDIO
    TITLE "0:"
    INDEX 01 00:16:22
  TRACK 14 AUDIO
    TITLE "41:cjc023_7127"
    INDEX 01 00:16:71
  TRACK 15 AUDIO
    TITLE "0:"
    INDEX 01 00:18:72
  TRACK 16 AUDIO
    TITLE "42:cjc023_7128"
    INDEX 01 00:19:22
  TRACK 17 AUDIO
    TITLE "0:"
    INDEX 01 00:21:04
  TRACK 18 AUDIO
    TITLE "41:cjc023_7129"
    INDEX 01 00:21:55
  TRACK 19 AUDIO
    TITLE "0:"
    INDEX 01 00:24:41
  TRACK 20 AUDIO
    TITLE "42:cjc023_7130"
    INDEX 01 00:24:61
  TRACK 21 AUDIO
    TITLE "0:"
    INDEX 01 00:27:53
  TRACK 22 AUDIO
    TITLE "40:cjc023_7131"
    INDEX 01 00:28:49
  TRACK 23 AUDIO
    TITLE "0:"
    INDEX 01 00:29:66
  TRACK 24 AUDIO
    TITLE "41:cjc023_7132"
    INDEX 01 00:30:40
  TRACK 25 AUDIO
    TITLE "0:"
    INDEX 01 00:32:35
  TRACK 26 AUDIO
    TITLE "42:cjc023_7133"
    INDEX 01 00:32:58
  TRACK 27 AUDIO
    TITLE "0:"
    INDEX 01 00:34:42
  TRACK 28 AUDIO
    TITLE "41:cjc023_7134"
    INDEX 01 00:35:14
  TRACK 29 AUDIO
    TITLE "0:"
    INDEX 01 00:37:22
  TRACK 30 AUDIO
    TITLE "42:cjc023_7135"
    INDEX 01 00:37:46
  TRACK 31 AUDIO
    TITLE "0:"
    INDEX 01 00:39:39
  TRACK 32 AUDIO
    TITLE "41:cjc023_7136"
    INDEX 01 00:40:11
  TRACK 33 AUDIO
    TITLE "0:"
    INDEX 01 00:42:35
  TRACK 34 AUDIO
    TITLE "42:cjc023_7137"
    INDEX 01 00:42:59
  TRACK 35 AUDIO
    TITLE "0:"
    INDEX 01 00:45:24
  TRACK 36 AUDIO
    TITLE "41:cjc023_7138"
    INDEX 01 00:45:71
  TRACK 37 AUDIO
    TITLE "0:"
    INDEX 01 00:47:54
  TRACK 38 AUDIO
    TITLE "42:cjc023_7139"
    INDEX 01 00:48:04
  TRACK 39 AUDIO
    TITLE "0:"
    INDEX 01 00:49:74
  TRACK 40 AUDIO
    TITLE "41:cjc023_7140"
    INDEX 01 00:50:48
  TRACK 41 AUDIO
    TITLE "0:"
    INDEX 01 00:52:47
  TRACK 42 AUDIO
    TITLE "42:cjc023_7141"
    INDEX 01 00:52:71
  TRACK 43 AUDIO
    TITLE "0:"
    INDEX 01 00:54:74
  TRACK 44 AUDIO
    TITLE "40:cjc023_7142"
    INDEX 01 00:56:10
  TRACK 45 AUDIO
    TITLE "0:"
    INDEX 01 00:57:27
  TRACK 46 AUDIO
    TITLE "41:cjc023_7143"
    INDEX 01 00:58:03
  TRACK 47 AUDIO
    TITLE "0:"
    INDEX 01 01:01:40
  TRACK 48 AUDIO
    TITLE "42:cjc023_7144"
    INDEX 01 01:01:62
  TRACK 49 AUDIO
    TITLE "0:"
    INDEX 01 01:04:31
  TRACK 50 AUDIO
    TITLE "41:cjc023_7145"
    INDEX 01 01:05:05
  TRACK 51 AUDIO
    TITLE "0:"
    INDEX 01 01:06:65
  TRACK 52 AUDIO
    TITLE "42:cjc023_7146"
    INDEX 01 01:07:12
  TRACK 53 AUDIO
    TITLE "0:"
    INDEX 01 01:09:09
  TRACK 54 AUDIO
    TITLE "41:cjc023_7147"
    INDEX 01 01:09:54
  TRACK 55 AUDIO
    TITLE "0:"
    INDEX 01 01:11:37
  TRACK 56 AUDIO
    TITLE "42:cjc023_7148"
    INDEX 01 01:11:64
  TRACK 57 AUDIO
    TITLE "0:"
    INDEX 01 01:13:65
  TRACK 58 AUDIO
    TITLE "40:cjc023_7149"
    INDEX 01 01:14:61
  TRACK 59 AUDIO
    TITLE "0:"
    INDEX 01 01:15:72
  TRACK 60 AUDIO
    TITLE "41:cjc023_7150"
    INDEX 01 01:16:46
  TRACK 61 AUDIO
    TITLE "0:"
    INDEX 01 01:18:53
  TRACK 62 AUDIO
    TITLE "42:cjc023_7151"
    INDEX 01 01:18:74
  TRACK 63 AUDIO
    TITLE "0:"
    INDEX 01 01:20:61
  TRACK 64 AUDIO
    TITLE "41:cjc023_7152"
    INDEX 01 01:21:33
  TRACK 65 AUDIO
    TITLE "0:"
    INDEX 01 01:23:34
  TRACK 66 AUDIO
    TITLE "42:cjc023_7153"
    INDEX 01 01:23:60
  TRACK 67 AUDIO
    TITLE "0:"
    INDEX 01 01:26:05
  TRACK 68 AUDIO
    TITLE "41:cjc023_7154"
    INDEX 01 01:26:50
  TRACK 69 AUDIO
    TITLE "0:"
    INDEX 01 01:30:20
  TRACK 70 AUDIO
    TITLE "42:cjc023_7155"
    INDEX 01 01:30:42
  TRACK 71 AUDIO
    TITLE "0:"
    INDEX 01 01:33:11
  TRACK 72 AUDIO
    TITLE "40:cjc023_7156"
    INDEX 01 01:34:06
  TRACK 73 AUDIO
    TITLE "0:"
    INDEX 01 01:35:22
  TRACK 74 AUDIO
    TITLE "41:cjc023_7157"
    INDEX 01 01:35:69
  TRACK 75 AUDIO
    TITLE "0:"
    INDEX 01 01:37:36
  TRACK 76 AUDIO
    TITLE "42:cjc023_7158"
    INDEX 01 01:37:54
  TRACK 77 AUDIO
    TITLE "0:"
    INDEX 01 01:39:39
  TRACK 78 AUDIO
    TITLE "41:cjc023_7159"
    INDEX 01 01:40:09
  TRACK 79 AUDIO
    TITLE "0:"
    INDEX 01 01:42:63
  TRACK 80 AUDIO
    TITLE "42:cjc023_7160"
    INDEX 01 01:43:11
  TRACK 81 AUDIO
    TITLE "0:"
    INDEX 01 01:45:61
  TRACK 82 AUDIO
    TITLE "40:cjc023_7161"
    INDEX 01 01:46:59
  TRACK 83 AUDIO
    TITLE "0:"
    INDEX 01 01:47:68
  TRACK 84 AUDIO
    TITLE "41:cjc023_7162"
    INDEX 01 01:48:40
  TRACK 85 AUDIO
    TITLE "0:"
    INDEX 01 01:50:06
  TRACK 86 AUDIO
    TITLE "42:cjc023_7163"
    INDEX 01 01:50:27
  TRACK 87 AUDIO
    TITLE "0:"
    INDEX 01 01:52:10
  TRACK 88 AUDIO
    TITLE "41:cjc023_7164"
    INDEX 01 01:52:57
  TRACK 89 AUDIO
    TITLE "0:"
    INDEX 01 01:54:23
  TRACK 90 AUDIO
    TITLE "42:cjc023_7165"
    INDEX 01 01:54:44
  TRACK 91 AUDIO
    TITLE "0:"
    INDEX 01 01:56:37
  TRACK 92 AUDIO
    TITLE "40:cjc023_7166"
    INDEX 01 01:57:35
  TRACK 93 AUDIO
    TITLE "0:"
    INDEX 01 01:58:36
  TRACK 94 AUDIO
    TITLE "41:cjc023_7167"
    INDEX 01 01:59:06
  TRACK 95 AUDIO
    TITLE "0:"
    INDEX 01 02:00:61
  TRACK 96 AUDIO
    TITLE "42:cjc023_7168"
    INDEX 01 02:01:09
  TRACK 97 AUDIO
    TITLE "0:"
    INDEX 01 02:03:04
  TRACK 98 AUDIO
    TITLE "40:cjc023_7169"
    INDEX 01 02:04:02
  TRACK 99 AUDIO
    TITLE "0:"
    INDEX 01 02:05:01
  TRACK 100 AUDIO
    TITLE "41:cjc023_7170"
    INDEX 01 02:05:46
  TRACK 101 AUDIO
    TITLE "0:"
    INDEX 01 02:08:21
  TRACK 102 AUDIO
    TITLE "42:cjc023_7171"
    INDEX 01 02:08:45
  TRACK 103 AUDIO
    TITLE "0:"
    INDEX 01 02:11:21
  TRACK 104 AUDIO
    TITLE "41:cjc023_7172"
    INDEX 01 02:11:68
  TRACK 105 AUDIO
    TITLE "0:"
    INDEX 01 02:14:20
  TRACK 106 AUDIO
    TITLE "42:cjc023_7173"
    INDEX 01 02:14:43
  TRACK 107 AUDIO
    TITLE "0:"
    INDEX 01 02:17:02
  TRACK 108 AUDIO
    TITLE "40:cjc023_7174"
    INDEX 01 02:18:00
  TRACK 109 AUDIO
    TITLE "0:"
    INDEX 01 02:18:66
  TRACK 110 AUDIO
    TITLE "41:cjc023_7175"
    INDEX 01 02:19:39
  TRACK 111 AUDIO
    TITLE "0:"
    INDEX 01 02:21:14
  TRACK 112 AUDIO
    TITLE "42:cjc023_7176"
    INDEX 01 02:21:37
  TRACK 113 AUDIO
    TITLE "0:"
    INDEX 01 02:22:54
  TRACK 114 AUDIO
    TITLE "40:cjc023_7177"
    INDEX 01 02:23:54
  TRACK 115 AUDIO
    TITLE "0:"
    INDEX 01 02:24:57
  TRACK 116 AUDIO
    TITLE "41:cjc023_7178"
    INDEX 01 02:25:29
  TRACK 117 AUDIO
    TITLE "0:"
    INDEX 01 02:28:63
  TRACK 118 AUDIO
    TITLE "42:cjc023_7179"
    INDEX 01 02:29:08
  TRACK 119 AUDIO
    TITLE "0:"
    INDEX 01 02:31:34
  TRACK 120 AUDIO
    TITLE "41:cjc023_7180"
    INDEX 01 02:32:10
  TRACK 121 AUDIO
    TITLE "0:"
    INDEX 01 02:35:20
  TRACK 122 AUDIO
    TITLE "42:cjc023_7181"
    INDEX 01 02:35:41
  TRACK 123 AUDIO
    TITLE "0:"
    INDEX 01 02:38:20
  TRACK 124 AUDIO
    TITLE "41:cjc023_7182"
    INDEX 01 02:38:67
  TRACK 125 AUDIO
    TITLE "0:"
    INDEX 01 02:40:64
  TRACK 126 AUDIO
    TITLE "42:cjc023_7183"
    INDEX 01 02:41:11
  TRACK 127 AUDIO
    TITLE "0:"
    INDEX 01 02:43:12
  TRACK 128 AUDIO
    TITLE "40:cjc023_7184"
    INDEX 01 02:44:09
  TRACK 129 AUDIO
    TITLE "0:"
    INDEX 01 02:45:20
  TRACK 130 AUDIO
    TITLE "41:cjc023_7185"
    INDEX 01 02:45:67
  TRACK 131 AUDIO
    TITLE "0:"
    INDEX 01 02:48:05
  TRACK 132 AUDIO
    TITLE "42:cjc023_7186"
    INDEX 01 02:48:30
  TRACK 133 AUDIO
    TITLE "0:"
    INDEX 01 02:50:23
  TRACK 134 AUDIO
    TITLE "40:cjc023_7187"
    INDEX 01 02:51:19
  TRACK 135 AUDIO
    TITLE "0:"
    INDEX 01 02:52:30
  TRACK 136 AUDIO
    TITLE "41:cjc023_7188"
    INDEX 01 02:53:06
  TRACK 137 AUDIO
    TITLE "0:"
    INDEX 01 02:55:46
  TRACK 138 AUDIO
    TITLE "42:cjc023_7189"
    INDEX 01 02:55:68
  TRACK 139 AUDIO
    TITLE "0:"
    INDEX 01 02:58:17
  TRACK 140 AUDIO
    TITLE "41:cjc023_7190"
    INDEX 01 02:58:64
  TRACK 141 AUDIO
    TITLE "0:"
    INDEX 01 03:01:08
  TRACK 142 AUDIO
    TITLE "42:cjc023_7191"
    INDEX 01 03:01:31
  TRACK 143 AUDIO
    TITLE "0:"
    INDEX 01 03:03:71
  TRACK 144 AUDIO
    TITLE "41:cjc023_7192"
    INDEX 01 03:04:41
  TRACK 145 AUDIO
    TITLE "0:"
    INDEX 01 03:07:49
  TRACK 146 AUDIO
    TITLE "42:cjc023_7193"
    INDEX 01 03:07:69
  TRACK 147 AUDIO
    TITLE "0:"
    INDEX 01 03:10:40
  TRACK 148 AUDIO
    TITLE "41:cjc023_7194"
    INDEX 01 03:11:14
  TRACK 149 AUDIO
    TITLE "0:"
    INDEX 01 03:13:05
  TRACK 150 AUDIO
    TITLE "42:cjc023_7195"
    INDEX 01 03:13:26
  TRACK 151 AUDIO
    TITLE "0:"
    INDEX 01 03:14:73
  TRACK 152 AUDIO
    TITLE "40:cjc023_7196"
    INDEX 01 03:15:72
  TRACK 153 AUDIO
    TITLE "0:"
    INDEX 01 03:17:40
  TRACK 154 AUDIO
    TITLE "41:cjc023_7197"
    INDEX 01 03:18:08
  TRACK 155 AUDIO
    TITLE "0:"
    INDEX 01 03:19:43
  TRACK 156 AUDIO
    TITLE "42:cjc023_7198"
    INDEX 01 03:19:66
  TRACK 157 AUDIO
    TITLE "0:"
    INDEX 01 03:21:59
  TRACK 158 AUDIO
    TITLE "41:cjc023_7199"
    INDEX 01 03:22:29
  TRACK 159 AUDIO
    TITLE "0:"
    INDEX 01 03:25:20
  TRACK 160 AUDIO
    TITLE "42:cjc023_7200"
    INDEX 01 03:25:41
  TRACK 161 AUDIO
    TITLE "0:"
    INDEX 01 03:28:55
  TRACK 162 AUDIO
    TITLE "40:cjc023_7201"
    INDEX 01 03:29:51
  TRACK 163 AUDIO
    TITLE "0:"
    INDEX 01 03:30:58
  TRACK 164 AUDIO
    TITLE "41:cjc023_7202"
    INDEX 01 03:31:32
  TRACK 165 AUDIO
    TITLE "0:"
    INDEX 01 03:33:39
  TRACK 166 AUDIO
    TITLE "42:cjc023_7203"
    INDEX 01 03:33:64
  TRACK 167 AUDIO
    TITLE "0:"
    INDEX 01 03:36:14
  TRACK 168 AUDIO
    TITLE "40:cjc023_7204"
    INDEX 01 03:37:13
  TRACK 169 AUDIO
    TITLE "0:"
    INDEX 01 03:38:15
  TRACK 170 AUDIO
    TITLE "41:cjc023_7205"
    INDEX 01 03:38:69
  TRACK 171 AUDIO
    TITLE "0:"
    INDEX 01 03:42:01
  TRACK 172 AUDIO
    TITLE "42:cjc023_7206"
    INDEX 01 03:42:28
  TRACK 173 AUDIO
    TITLE "0:"
    INDEX 01 03:45:03
  TRACK 174 AUDIO
    TITLE "41:cjc023_7207"
    INDEX 01 03:45:50
  TRACK 175 AUDIO
    TITLE "0:"
    INDEX 01 03:47:70
  TRACK 176 AUDIO
    TITLE "42:cjc023_7208"
    INDEX 01 03:48:17
  TRACK 177 AUDIO
    TITLE "0:"
    INDEX 01 03:50:39
  TRACK 178 AUDIO
    TITLE "41:cjc023_7209"
    INDEX 01 03:51:13
  TRACK 179 AUDIO
    TITLE "0:"
    INDEX 01 03:54:19
  TRACK 180 AUDIO
    TITLE "42:cjc023_7210"
    INDEX 01 03:54:41
  TRACK 181 AUDIO
    TITLE "0:"
    INDEX 01 03:56:63
  TRACK 182 AUDIO
    TITLE "40:cjc023_7211"
    INDEX 01 03:57:59
  TRACK 183 AUDIO
    TITLE "0:"
    INDEX 01 03:58:70
  TRACK 184 AUDIO
    TITLE "41:cjc023_7212"
    INDEX 01 03:59:42
  TRACK 185 AUDIO
    TITLE "0:"
    INDEX 01 04:03:73
  TRACK 186 AUDIO
    TITLE "42:cjc023_7213"
    INDEX 01 04:04:20
  TRACK 187 AUDIO
    TITLE "0:"
    INDEX 01 04:07:38
  TRACK 188 AUDIO
    TITLE "41:cjc023_7214"
    INDEX 01 04:08:16
  TRACK 189 AUDIO
    TITLE "0:"
    INDEX 01 04:10:44
  TRACK 190 AUDIO
    TITLE "42:cjc023_7215"
    INDEX 01 04:10:67
  TRACK 191 AUDIO
    TITLE "0:"
    INDEX 01 04:13:03
  TRACK 192 AUDIO
    TITLE "40:cjc023_7216"
    INDEX 01 04:14:01
  TRACK 193 AUDIO
    TITLE "0:"
    INDEX 01 04:15:18
  TRACK 194 AUDIO
    TITLE "41:cjc023_7217"
    INDEX 01 04:15:65
  TRACK 195 AUDIO
    TITLE "0:"
    INDEX 01 04:17:73
  TRACK 196 AUDIO
    TITLE "42:cjc023_7218"
    INDEX 01 04:18:20
  TRACK 197 AUDIO
    TITLE "0:"
    INDEX 01 04:20:15
  TRACK 198 AUDIO
    TITLE "41:cjc023_7219"
    INDEX 01 04:20:62
  TRACK 199 AUDIO
    TITLE "0:"
    INDEX 01 04:23:11
  TRACK 200 AUDIO
    TITLE "42:cjc023_7220"
    INDEX 01 04:23:31
  TRACK 201 AUDIO
    TITLE "0:"
    INDEX 01 04:25:44
  TRACK 202 AUDIO
    TITLE "40:cjc023_7221"
    INDEX 01 04:26:39
  TRACK 203 AUDIO
    TITLE "0:"
    INDEX 01 04:27:58
  TRACK 204 AUDIO
    TITLE "41:cjc023_7222"
    INDEX 01 04:28:30
  TRACK 205 AUDIO
    TITLE "0:"
    INDEX 01 04:30:00
  TRACK 206 AUDIO
    TITLE "42:cjc023_7223"
    INDEX 01 04:30:19
  TRACK 207 AUDIO
    TITLE "0:"
    INDEX 01 04:32:20
  TRACK 208 AUDIO
    TITLE "41:cjc023_7224"
    INDEX 01 04:32:63
  TRACK 209 AUDIO
    TITLE "0:"
    INDEX 01 04:35:03
  TRACK 210 AUDIO
    TITLE "42:cjc023_7225"
    INDEX 01 04:35:24
  TRACK 211 AUDIO
    TITLE "0:"
    INDEX 01 04:37:21
  TRACK 212 AUDIO
    TITLE "40:cjc023_7226"
    INDEX 01 04:38:19
  TRACK 213 AUDIO
    TITLE "0:"
    INDEX 01 04:39:18
  TRACK 214 AUDIO
    TITLE "41:cjc023_7227"
    INDEX 01 04:39:67
  TRACK 215 AUDIO
    TITLE "0:"
    INDEX 01 04:42:01
  TRACK 216 AUDIO
    TITLE "42:cjc023_7228"
    INDEX 01 04:42:26
  TRACK 217 AUDIO
    TITLE "0:"
    INDEX 01 04:43:69
  TRACK 218 AUDIO
    TITLE "41:cjc023_7229"
    INDEX 01 04:44:43
  TRACK 219 AUDIO
    TITLE "0:"
    INDEX 01 04:46:36
  TRACK 220 AUDIO
    TITLE "42:cjc023_7230"
    INDEX 01 04:46:61
  TRACK 221 AUDIO
    TITLE "0:"
    INDEX 01 04:48:37
  TRACK 222 AUDIO
    TITLE "40:cjc023_7231"
    INDEX 01 04:49:34
  TRACK 223 AUDIO
    TITLE "0:"
    INDEX 01 04:50:59
  TRACK 224 AUDIO
    TITLE "41:cjc023_7232"
    INDEX 01 04:51:29
  TRACK 225 AUDIO
    TITLE "0:"
    INDEX 01 04:54:28
  TRACK 226 AUDIO
    TITLE "42:cjc023_7233"
    INDEX 01 04:54:51
  TRACK 227 AUDIO
    TITLE "0:"
    INDEX 01 04:57:32
  TRACK 228 AUDIO
    TITLE "41:cjc023_7234"
    INDEX 01 04:58:06
  TRACK 229 AUDIO
    TITLE "0:"
    INDEX 01 05:01:33
  TRACK 230 AUDIO
    TITLE "42:cjc023_7235"
    INDEX 01 05:01:55
  TRACK 231 AUDIO
    TITLE "0:"
    INDEX 01 05:05:06
  TRACK 232 AUDIO
    TITLE "40:cjc023_7236"
    INDEX 01 05:06:09
  TRACK 233 AUDIO
    TITLE "0:"
    INDEX 01 05:07:32
  TRACK 234 AUDIO
    TITLE "41:cjc023_7237"
    INDEX 01 05:08:02
  TRACK 235 AUDIO
    TITLE "0:"
    INDEX 01 05:09:58
  TRACK 236 AUDIO
    TITLE "42:cjc023_7238"
    INDEX 01 05:10:07
  TRACK 237 AUDIO
    TITLE "0:"
    INDEX 01 05:12:12
  TRACK 238 AUDIO
    TITLE "41:cjc023_7239"
    INDEX 01 05:12:59
  TRACK 239 AUDIO
    TITLE "0:"
    INDEX 01 05:15:16
  TRACK 240 AUDIO
    TITLE "42:cjc023_7240"
    INDEX 01 05:15:38
  TRACK 241 AUDIO
    TITLE "0:"
    INDEX 01 05:17:64
  TRACK 242 AUDIO
    TITLE "41:cjc023_7241"
    INDEX 01 05:18:40
  TRACK 243 AUDIO
    TITLE "0:"
    INDEX 01 05:20:43
  TRACK 244 AUDIO
    TITLE "42:cjc023_7242"
    INDEX 01 05:20:64
  TRACK 245 AUDIO
    TITLE "0:"
    INDEX 01 05:22:73
  TRACK 246 AUDIO
    TITLE "41:cjc023_7243"
    INDEX 01 05:23:45
  TRACK 247 AUDIO
    TITLE "0:"
    INDEX 01 05:26:22
  TRACK 248 AUDIO
    TITLE "42:cjc023_7244"
    INDEX 01 05:26:41
  TRACK 249 AUDIO
    TITLE "0:"
    INDEX 01 05:29:44
  TRACK 250 AUDIO
    TITLE "40:cjc023_7245"
    INDEX 01 05:30:39
  TRACK 251 AUDIO
    TITLE "0:"
    INDEX 01 05:31:54
  TRACK 252 AUDIO
    TITLE "41:cjc023_7246"
    INDEX 01 05:32:26
  TRACK 253 AUDIO
    TITLE "0:"
    INDEX 01 05:34:47
  TRACK 254 AUDIO
    TITLE "42:cjc023_7247"
    INDEX 01 05:34:72
  TRACK 255 AUDIO
    TITLE "0:"
    INDEX 01 05:37:10
  TRACK 256 AUDIO
    TITLE "41:cjc023_7248"
    INDEX 01 05:37:59
  TRACK 257 AUDIO
    TITLE "0:"
    INDEX 01 05:40:12
  TRACK 258 AUDIO
    TITLE "42:cjc023_7249"
    INDEX 01 05:40:34
  TRACK 259 AUDIO
    TITLE "0:"
    INDEX 01 05:42:74
  TRACK 260 AUDIO
    TITLE "41:cjc023_7250"
    INDEX 01 05:43:44
  TRACK 261 AUDIO
    TITLE "0:"
    INDEX 01 05:45:29
  TRACK 262 AUDIO
    TITLE "42:cjc023_7251"
    INDEX 01 05:45:52
  TRACK 263 AUDIO
    TITLE "0:"
    INDEX 01 05:47:45
  TRACK 264 AUDIO
    TITLE "40:cjc023_7252"
    INDEX 01 05:48:41
  TRACK 265 AUDIO
    TITLE "0:"
    INDEX 01 05:49:42
  TRACK 266 AUDIO
    TITLE "41:cjc023_7253"
    INDEX 01 05:50:12
  TRACK 267 AUDIO
    TITLE "0:"
    INDEX 01 05:52:39
  TRACK 268 AUDIO
    TITLE "42:cjc023_7254"
    INDEX 01 05:52:58
  TRACK 269 AUDIO
    TITLE "0:"
    INDEX 01 05:54:53
  TRACK 270 AUDIO
    TITLE "41:cjc023_7255"
    INDEX 01 05:55:25
  TRACK 271 AUDIO
    TITLE "0:"
    INDEX 01 05:57:12
  TRACK 272 AUDIO
    TITLE "42:cjc023_7256"
    INDEX 01 05:57:34
  TRACK 273 AUDIO
    TITLE "0:"
    INDEX 01 05:59:09
  TRACK 274 AUDIO
    TITLE "40:cjc023_7257"
    INDEX 01 06:00:09
  TRACK 275 AUDIO
    TITLE "0:"
    INDEX 01 06:01:16
  TRACK 276 AUDIO
    TITLE "41:cjc023_7258"
    INDEX 01 06:01:61
  TRACK 277 AUDIO
    TITLE "0:"
    INDEX 01 06:03:01
  TRACK 278 AUDIO
    TITLE "42:cjc023_7259"
    INDEX 01 06:03:25
  TRACK 279 AUDIO
    TITLE "0:"
    INDEX 01 06:04:52
  TRACK 280 AUDIO
    TITLE "41:cjc023_7260"
    INDEX 01 06:05:24
  TRACK 281 AUDIO
    TITLE "0:"
    INDEX 01 06:07:09
  TRACK 282 AUDIO
    TITLE "42:cjc023_7261"
    INDEX 01 06:07:28
  TRACK 283 AUDIO
    TITLE "0:"
    INDEX 01 06:08:73
  TRACK 284 AUDIO
    TITLE "41:cjc023_7262"
    INDEX 01 06:09:45
  TRACK 285 AUDIO
    TITLE "0:"
    INDEX 01 06:12:41
  TRACK 286 AUDIO
    TITLE "42:cjc023_7263"
    INDEX 01 06:12:69
  TRACK 287 AUDIO
    TITLE "0:"
    INDEX 01 06:16:00
  TRACK 288 AUDIO
    TITLE "41:cjc023_7264"
    INDEX 01 06:16:49
  TRACK 289 AUDIO
    TITLE "0:"
    INDEX 01 06:17:74
  TRACK 290 AUDIO
    TITLE "42:cjc023_7265"
    INDEX 01 06:18:22
  TRACK 291 AUDIO
    TITLE "0:"
    INDEX 01 06:20:04
  TRACK 292 AUDIO
    TITLE "41:cjc023_7266"
    INDEX 01 06:20:49
  TRACK 293 AUDIO
    TITLE "0:"
    INDEX 01 06:24:27
  TRACK 294 AUDIO
    TITLE "42:cjc023_7267"
    INDEX 01 06:24:50
  TRACK 295 AUDIO
    TITLE "0:"
    INDEX 01 06:27:43
  TRACK 296 AUDIO
    TITLE "40:cjc023_7268"
    INDEX 01 06:28:42
  TRACK 297 AUDIO
    TITLE "0:"
    INDEX 01 06:29:50
  TRACK 298 AUDIO
    TITLE "41:cjc023_7269"
    INDEX 01 06:30:20
  TRACK 299 AUDIO
    TITLE "0:"
    INDEX 01 06:31:35
  TRACK 300 AUDIO
    TITLE "42:cjc023_7270"
    INDEX 01 06:31:56
  TRACK 301 AUDIO
    TITLE "0:"
    INDEX 01 06:33:42
  TRACK 302 AUDIO
    TITLE "41:cjc023_7271"
    INDEX 01 06:34:14
  TRACK 303 AUDIO
    TITLE "0:"
    INDEX 01 06:36:67
  TRACK 304 AUDIO
    TITLE "42:cjc023_7272"
    INDEX 01 06:37:16
  TRACK 305 AUDIO
    TITLE "0:"
    INDEX 01 06:39:40
  TRACK 306 AUDIO
    TITLE "40:cjc023_7273"
    INDEX 01 06:40:36
  TRACK 307 AUDIO
    TITLE "0:"
    INDEX 01 06:41:63
  TRACK 308 AUDIO
    TITLE "41:cjc023_7274"
    INDEX 01 06:42:35
  TRACK 309 AUDIO
    TITLE "0:"
    INDEX 01 06:44:12
  TRACK 310 AUDIO
    TITLE "42:cjc023_7275"
    INDEX 01 06:44:34
  TRACK 311 AUDIO
    TITLE "0:"
    INDEX 01 06:46:52
  TRACK 312 AUDIO
    TITLE "41:cjc023_7276"
    INDEX 01 06:47:24
  TRACK 313 AUDIO
    TITLE "0:"
    INDEX 01 06:49:05
  TRACK 314 AUDIO
    TITLE "42:cjc023_7277"
    INDEX 01 06:49:27
  TRACK 315 AUDIO
    TITLE "0:"
    INDEX 01 06:51:16
  TRACK 316 AUDIO
    TITLE "41:cjc023_7278"
    INDEX 01 06:51:61
  TRACK 317 AUDIO
    TITLE "0:"
    INDEX 01 06:54:03
  TRACK 318 AUDIO
    TITLE "42:cjc023_7279"
    INDEX 01 06:54:26
  TRACK 319 AUDIO
    TITLE "0:"
    INDEX 01 06:56:45
  TRACK 320 AUDIO
    TITLE "40:cjc023_7280"
    INDEX 01 06:57:42
  TRACK 321 AUDIO
    TITLE "0:"
    INDEX 01 06:58:67
  TRACK 322 AUDIO
    TITLE "41:cjc023_7281"
    INDEX 01 06:59:39
  TRACK 323 AUDIO
    TITLE "0:"
    INDEX 01 07:01:42
  TRACK 324 AUDIO
    TITLE "42:cjc023_7282"
    INDEX 01 07:01:63
  TRACK 325 AUDIO
    TITLE "0:"
    INDEX 01 07:03:62
  TRACK 326 AUDIO
    TITLE "41:cjc023_7283"
    INDEX 01 07:04:34
  TRACK 327 AUDIO
    TITLE "0:"
    INDEX 01 07:06:12
  TRACK 328 AUDIO
    TITLE "42:cjc023_7284"
    INDEX 01 07:06:33
  TRACK 329 AUDIO
    TITLE "0:"
    INDEX 01 07:08:34
  TRACK 330 AUDIO
    TITLE "41:cjc023_7285"
    INDEX 01 07:09:06
  TRACK 331 AUDIO
    TITLE "0:"
    INDEX 01 07:12:57
  TRACK 332 AUDIO
    TITLE "42:cjc023_7286"
    INDEX 01 07:13:10
  TRACK 333 AUDIO
    TITLE "0:"
    INDEX 01 07:16:30
  TRACK 334 AUDIO
    TITLE "41:cjc023_7287"
    INDEX 01 07:17:02
  TRACK 335 AUDIO
    TITLE "0:"
    INDEX 01 07:19:24
  TRACK 336 AUDIO
    TITLE "42:cjc023_7288"
    INDEX 01 07:19:48
  TRACK 337 AUDIO
    TITLE "0:"
    INDEX 01 07:21:54
  TRACK 338 AUDIO
    TITLE "40:cjc023_7289"
    INDEX 01 07:22:54
  TRACK 339 AUDIO
    TITLE "0:"
    INDEX 01 07:23:57
  TRACK 340 AUDIO
    TITLE "41:cjc023_7290"
    INDEX 01 07:24:29
  TRACK 341 AUDIO
    TITLE "0:"
    INDEX 01 07:26:05
  TRACK 342 AUDIO
    TITLE "42:cjc023_7291"
    INDEX 01 07:26:24
  TRACK 343 AUDIO
    TITLE "0:"
    INDEX 01 07:27:57
  TRACK 344 AUDIO
    TITLE "41:cjc023_7292"
    INDEX 01 07:28:29
  TRACK 345 AUDIO
    TITLE "0:"
    INDEX 01 07:30:22
  TRACK 346 AUDIO
    TITLE "42:cjc023_7293"
    INDEX 01 07:30:51
  TRACK 347 AUDIO
    TITLE "0:"
    INDEX 01 07:32:27
  TRACK 348 AUDIO
    TITLE "40:cjc023_7294"
    INDEX 01 07:33:24
  TRACK 349 AUDIO
    TITLE "0:"
    INDEX 01 07:34:41
  TRACK 350 AUDIO
    TITLE "41:cjc023_7295"
    INDEX 01 07:35:11
  TRACK 351 AUDIO
    TITLE "0:"
    INDEX 01 07:37:34
  TRACK 352 AUDIO
    TITLE "42:cjc023_7296"
    INDEX 01 07:37:57
  TRACK 353 AUDIO
    TITLE "0:"
    INDEX 01 07:39:58
  TRACK 354 AUDIO
    TITLE "41:cjc023_7297"
    INDEX 01 07:40:32
  TRACK 355 AUDIO
    TITLE "0:"
    INDEX 01 07:42:23
  TRACK 356 AUDIO
    TITLE "42:cjc023_7298"
    INDEX 01 07:42:49
  TRACK 357 AUDIO
    TITLE "0:"
    INDEX 01 07:44:61
  TRACK 358 AUDIO
    TITLE "40:cjc023_7299"
    INDEX 01 07:45:65
  TRACK 359 AUDIO
    TITLE "0:"
    INDEX 01 07:46:70
  TRACK 360 AUDIO
    TITLE "41:cjc023_7300"
    INDEX 01 07:47:48
  TRACK 361 AUDIO
    TITLE "0:"
    INDEX 01 07:51:36
  TRACK 362 AUDIO
    TITLE "42:cjc023_7301"
    INDEX 01 07:51:61
  TRACK 363 AUDIO
    TITLE "0:"
    INDEX 01 07:54:50
  TRACK 364 AUDIO
    TITLE "41:cjc023_7302"
    INDEX 01 07:55:20
  TRACK 365 AUDIO
    TITLE "0:"
    INDEX 01 07:59:22
  TRACK 366 AUDIO
    TITLE "42:cjc023_7303"
    INDEX 01 07:59:43
  TRACK 367 AUDIO
    TITLE "0:"
    INDEX 01 08:03:37
  TRACK 368 AUDIO
    TITLE "41:cjc023_7304"
    INDEX 01 08:04:07
  TRACK 369 AUDIO
    TITLE "0:"
    INDEX 01 08:05:48
  TRACK 370 AUDIO
    TITLE "42:cjc023_7305"
    INDEX 01 08:05:73
  TRACK 371 AUDIO
    TITLE "0:"
    INDEX 01 08:07:45
  TRACK 372 AUDIO
    TITLE "41:cjc023_7306"
    INDEX 01 08:08:17
  TRACK 373 AUDIO
    TITLE "0:"
    INDEX 01 08:11:05
  TRACK 374 AUDIO
    TITLE "42:cjc023_7307"
    INDEX 01 08:11:27
  TRACK 375 AUDIO
    TITLE "0:"
    INDEX 01 08:13:41
  TRACK 376 AUDIO
    TITLE "40:cjc023_7308"
    INDEX 01 08:14:37
  TRACK 377 AUDIO
    TITLE "0:"
    INDEX 01 08:15:40
  TRACK 378 AUDIO
    TITLE "41:cjc023_7309"
    INDEX 01 08:16:12
  TRACK 379 AUDIO
    TITLE "0:"
    INDEX 01 08:17:74
  TRACK 380 AUDIO
    TITLE "42:cjc023_7310"
    INDEX 01 08:18:19
  TRACK 381 AUDIO
    TITLE "0:"
    INDEX 01 08:20:04
  TRACK 382 AUDIO
    TITLE "41:cjc023_7311"
    INDEX 01 08:20:51
  TRACK 383 AUDIO
    TITLE "0:"
    INDEX 01 08:23:63
  TRACK 384 AUDIO
    TITLE "42:cjc023_7312"
    INDEX 01 08:24:10
  TRACK 385 AUDIO
    TITLE "0:"
    INDEX 01 08:26:50
  TRACK 386 AUDIO
    TITLE "41:cjc023_7313"
    INDEX 01 08:27:20
  TRACK 387 AUDIO
    TITLE "0:"
    INDEX 01 08:29:40
  TRACK 388 AUDIO
    TITLE "42:cjc023_7314"
    INDEX 01 08:29:64
  TRACK 389 AUDIO
    TITLE "0:"
    INDEX 01 08:31:39
  TRACK 390 AUDIO
    TITLE "40:cjc023_7315"
    INDEX 01 08:32:37
  TRACK 391 AUDIO
    TITLE "0:"
    INDEX 01 08:33:42
  TRACK 392 AUDIO
    TITLE "41:cjc023_7316"
    INDEX 01 08:34:14
  TRACK 393 AUDIO
    TITLE "0:"
    INDEX 01 08:36:36
  TRACK 394 AUDIO
    TITLE "42:cjc023_7317"
    INDEX 01 08:36:56
  TRACK 395 AUDIO
    TITLE "0:"
    INDEX 01 08:38:55
  TRACK 396 AUDIO
    TITLE "40:cjc023_7318"
    INDEX 01 08:39:58
  TRACK 397 AUDIO
    TITLE "0:"
    INDEX 01 08:40:60
  TRACK 398 AUDIO
    TITLE "41:cjc023_7319"
    INDEX 01 08:41:30
  TRACK 399 AUDIO
    TITLE "0:"
    INDEX 01 08:44:54
  TRACK 400 AUDIO
    TITLE "42:cjc023_7320"
    INDEX 01 08:45:02
  TRACK 401 AUDIO
    TITLE "0:"
    INDEX 01 08:47:28
  TRACK 402 AUDIO
    TITLE "41:cjc023_7321"
    INDEX 01 08:47:74
  TRACK 403 AUDIO
    TITLE "0:"
    INDEX 01 08:50:03
  TRACK 404 AUDIO
    TITLE "42:cjc023_7322"
    INDEX 01 08:50:27
  TRACK 405 AUDIO
    TITLE "0:"
    INDEX 01 08:51:73
  TRACK 406 AUDIO
    TITLE "41:cjc023_7323"
    INDEX 01 08:52:43
  TRACK 407 AUDIO
    TITLE "0:"
    INDEX 01 08:54:68
  TRACK 408 AUDIO
    TITLE "42:cjc023_7324"
    INDEX 01 08:55:16
  TRACK 409 AUDIO
    TITLE "0:"
    INDEX 01 08:57:23
  TRACK 410 AUDIO
    TITLE "40:cjc023_7325"
    INDEX 01 08:58:18
  TRACK 411 AUDIO
    TITLE "0:"
    INDEX 01 08:59:22
  TRACK 412 AUDIO
    TITLE "41:cjc023_7326"
    INDEX 01 08:59:67
  TRACK 413 AUDIO
    TITLE "0:"
    INDEX 01 09:02:42
  TRACK 414 AUDIO
    TITLE "42:cjc023_7327"
    INDEX 01 09:02:63
  TRACK 415 AUDIO
    TITLE "0:"
    INDEX 01 09:04:66
  TRACK 416 AUDIO
    TITLE "41:cjc023_7328"
    INDEX 01 09:05:38
  TRACK 417 AUDIO
    TITLE "0:"
    INDEX 01 09:08:36
  TRACK 418 AUDIO
    TITLE "42:cjc023_7329"
    INDEX 01 09:08:56
  TRACK 419 AUDIO
    TITLE "0:"
    INDEX 01 09:11:37
  TRACK 420 AUDIO
    TITLE "41:cjc023_7330"
    INDEX 01 09:12:09
  TRACK 421 AUDIO
    TITLE "0:"
    INDEX 01 09:14:43
  TRACK 422 AUDIO
    TITLE "42:cjc023_7331"
    INDEX 01 09:14:65
  TRACK 423 AUDIO
    TITLE "0:"
    INDEX 01 09:17:22
  TRACK 424 AUDIO
    TITLE "41:cjc023_7332"
    INDEX 01 09:17:69
  TRACK 425 AUDIO
    TITLE "0:"
    INDEX 01 09:21:10
  TRACK 426 AUDIO
    TITLE "42:cjc023_7333"
    INDEX 01 09:21:31
  TRACK 427 AUDIO
    TITLE "0:"
    INDEX 01 09:23:42
  TRACK 428 AUDIO
    TITLE "41:cjc023_7334"
    INDEX 01 09:24:14
  TRACK 429 AUDIO
    TITLE "0:"
    INDEX 01 09:27:22
  TRACK 430 AUDIO
    TITLE "42:cjc023_7335"
    INDEX 01 09:27:44
  TRACK 431 AUDIO
    TITLE "0:"
    INDEX 01 09:30:46
  TRACK 432 AUDIO
    TITLE "40:cjc023_7336"
    INDEX 01 09:31:41
  TRACK 433 AUDIO
    TITLE "0:"
    INDEX 01 09:32:51
  TRACK 434 AUDIO
    TITLE "41:cjc023_7337"
    INDEX 01 09:33:27
  TRACK 435 AUDIO
    TITLE "0:"
    INDEX 01 09:36:70
  TRACK 436 AUDIO
    TITLE "42:cjc023_7338"
    INDEX 01 09:37:17
  TRACK 437 AUDIO
    TITLE "0:"
    INDEX 01 09:40:29
  TRACK 438 AUDIO
    TITLE "40:cjc023_7339"
    INDEX 01 09:41:24
  TRACK 439 AUDIO
    TITLE "0:"
    INDEX 01 09:42:33
  TRACK 440 AUDIO
    TITLE "41:cjc023_7340"
    INDEX 01 09:43:02
  TRACK 441 AUDIO
    TITLE "0:"
    INDEX 01 09:44:46
  TRACK 442 AUDIO
    TITLE "42:cjc023_7341"
    INDEX 01 09:44:68
  TRACK 443 AUDIO
    TITLE "0:"
    INDEX 01 09:46:53
  TRACK 444 AUDIO
    TITLE "41:cjc023_7342"
    INDEX 01 09:47:25
  TRACK 445 AUDIO
    TITLE "0:"
    INDEX 01 09:49:49
  TRACK 446 AUDIO
    TITLE "42:cjc023_7343"
    INDEX 01 09:50:02
  TRACK 447 AUDIO
    TITLE "0:"
    INDEX 01 09:52:08
  TRACK 448 AUDIO
    TITLE "40:cjc023_7344"
    INDEX 01 09:53:08
  TRACK 449 AUDIO
    TITLE "0:"
    INDEX 01 09:54:23
  TRACK 450 AUDIO
    TITLE "41:cjc023_7345"
    INDEX 01 09:54:72
  TRACK 451 AUDIO
    TITLE "0:"
    INDEX 01 09:58:19
  TRACK 452 AUDIO
    TITLE "42:cjc023_7346"
    INDEX 01 09:58:42
  TRACK 453 AUDIO
    TITLE "0:"
    INDEX 01 10:01:35
  TRACK 454 AUDIO
    TITLE "40:cjc023_7347"
    INDEX 01 10:02:32
  TRACK 455 AUDIO
    TITLE "0:"
    INDEX 01 10:03:41
  TRACK 456 AUDIO
    TITLE "41:cjc023_7348"
    INDEX 01 10:04:12
  TRACK 457 AUDIO
    TITLE "0:"
    INDEX 01 10:05:52
  TRACK 458 AUDIO
    TITLE "42:cjc023_7349"
    INDEX 01 10:05:72
  TRACK 459 AUDIO
    TITLE "0:"
    INDEX 01 10:07:49
  TRACK 460 AUDIO
    TITLE "41:cjc023_7350"
    INDEX 01 10:08:19
  TRACK 461 AUDIO
    TITLE "0:"
    INDEX 01 10:11:04
  TRACK 462 AUDIO
    TITLE "42:cjc023_7351"
    INDEX 01 10:11:27
  TRACK 463 AUDIO
    TITLE "0:"
    INDEX 01 10:12:74
  TRACK 464 AUDIO
    TITLE "41:cjc023_7352"
    INDEX 01 10:13:46
  TRACK 465 AUDIO
    TITLE "0:"
    INDEX 01 10:15:37
  TRACK 466 AUDIO
    TITLE "42:cjc023_7353"
    INDEX 01 10:15:58
  TRACK 467 AUDIO
    TITLE "0:"
    INDEX 01 10:17:42
  TRACK 468 AUDIO
    TITLE "41:cjc023_7354"
    INDEX 01 10:18:10
  TRACK 469 AUDIO
    TITLE "0:"
    INDEX 01 10:19:44
  TRACK 470 AUDIO
    TITLE "42:cjc023_7355"
    INDEX 01 10:19:64
  TRACK 471 AUDIO
    TITLE "0:"
    INDEX 01 10:21:47
  TRACK 472 AUDIO
    TITLE "40:cjc023_7356"
    INDEX 01 10:22:47
  TRACK 473 AUDIO
    TITLE "0:"
    INDEX 01 10:23:60
  TRACK 474 AUDIO
    TITLE "41:cjc023_7357"
    INDEX 01 10:24:34
  TRACK 475 AUDIO
    TITLE "0:"
    INDEX 01 10:25:63
  TRACK 476 AUDIO
    TITLE "42:cjc023_7358"
    INDEX 01 10:26:11
  TRACK 477 AUDIO
    TITLE "0:"
    INDEX 01 10:28:30
  TRACK 478 AUDIO
    TITLE "41:cjc023_7359"
    INDEX 01 10:29:02
  TRACK 479 AUDIO
    TITLE "0:"
    INDEX 01 10:31:40
  TRACK 480 AUDIO
    TITLE "42:cjc023_7360"
    INDEX 01 10:31:59
  TRACK 481 AUDIO
    TITLE "0:"
    INDEX 01 10:34:09
  TRACK 482 AUDIO
    TITLE "41:cjc023_7361"
    INDEX 01 10:34:54
  TRACK 483 AUDIO
    TITLE "0:"
    INDEX 01 10:37:21
  TRACK 484 AUDIO
    TITLE "42:cjc023_7362"
    INDEX 01 10:37:46
  TRACK 485 AUDIO
    TITLE "0:"
    INDEX 01 10:40:66
  TRACK 486 AUDIO
    TITLE "40:cjc023_7363"
    INDEX 01 10:41:62
  TRACK 487 AUDIO
    TITLE "0:"
    INDEX 01 10:42:69
  TRACK 488 AUDIO
    TITLE "41:cjc023_7364"
    INDEX 01 10:43:39
  TRACK 489 AUDIO
    TITLE "0:"
    INDEX 01 10:44:74
  TRACK 490 AUDIO
    TITLE "42:cjc023_7365"
    INDEX 01 10:45:18
  TRACK 491 AUDIO
    TITLE "0:"
    INDEX 01 10:47:09
  TRACK 492 AUDIO
    TITLE "41:cjc023_7366"
    INDEX 01 10:47:56
  TRACK 493 AUDIO
    TITLE "0:"
    INDEX 01 10:49:53
  TRACK 494 AUDIO
    TITLE "42:cjc023_7367"
    INDEX 01 10:50:00
  TRACK 495 AUDIO
    TITLE "0:"
    INDEX 01 10:51:58
  TRACK 496 AUDIO
    TITLE "41:cjc023_7368"
    INDEX 01 10:52:30
  TRACK 497 AUDIO
    TITLE "0:"
    INDEX 01 10:55:54
  TRACK 498 AUDIO
    TITLE "42:cjc023_7369"
    INDEX 01 10:56:02
  TRACK 499 AUDIO
    TITLE "0:"
    INDEX 01 10:59:03
  TRACK 500 AUDIO
    TITLE "40:cjc023_7370"
    INDEX 01 11:00:00
  TRACK 501 AUDIO
    TITLE "0:"
    INDEX 01 11:01:09
  TRACK 502 AUDIO
    TITLE "41:cjc023_7371"
    INDEX 01 11:01:55
  TRACK 503 AUDIO
    TITLE "0:"
    INDEX 01 11:03:34
  TRACK 504 AUDIO
    TITLE "42:cjc023_7372"
    INDEX 01 11:03:57
  TRACK 505 AUDIO
    TITLE "0:"
    INDEX 01 11:05:35
  TRACK 506 AUDIO
    TITLE "41:cjc023_7373"
    INDEX 01 11:06:07
  TRACK 507 AUDIO
    TITLE "0:"
    INDEX 01 11:07:59
  TRACK 508 AUDIO
    TITLE "42:cjc023_7374"
    INDEX 01 11:08:04
  TRACK 509 AUDIO
    TITLE "0:"
    INDEX 01 11:09:48
  TRACK 510 AUDIO
    TITLE "41:cjc023_7375"
    INDEX 01 11:10:20
  TRACK 511 AUDIO
    TITLE "0:"
    INDEX 01 11:12:64
  TRACK 512 AUDIO
    TITLE "42:cjc023_7376"
    INDEX 01 11:13:09
  TRACK 513 AUDIO
    TITLE "0:"
    INDEX 01 11:15:45
  TRACK 514 AUDIO
    TITLE "41:cjc023_7377"
    INDEX 01 11:16:17
  TRACK 515 AUDIO
    TITLE "0:"
    INDEX 01 11:18:33
  TRACK 516 AUDIO
    TITLE "42:cjc023_7378"
    INDEX 01 11:18:55
  TRACK 517 AUDIO
    TITLE "0:"
    INDEX 01 11:21:14
  TRACK 518 AUDIO
    TITLE "40:cjc023_7379"
    INDEX 01 11:22:12
  TRACK 519 AUDIO
    TITLE "0:"
    INDEX 01 11:23:19
  TRACK 520 AUDIO
    TITLE "41:cjc023_7380"
    INDEX 01 11:23:68
  TRACK 521 AUDIO
    TITLE "0:"
    INDEX 01 11:25:73
  TRACK 522 AUDIO
    TITLE "42:cjc023_7381"
    INDEX 01 11:26:15
  TRACK 523 AUDIO
    TITLE "0:"
    INDEX 01 11:28:12
  TRACK 524 AUDIO
    TITLE "41:cjc023_7382"
    INDEX 01 11:28:55
  TRACK 525 AUDIO
    TITLE "0:"
    INDEX 01 11:31:73
  TRACK 526 AUDIO
    TITLE "42:cjc023_7383"
    INDEX 01 11:32:20
  TRACK 527 AUDIO
    TITLE "0:"
    INDEX 01 11:34:62
  TRACK 528 AUDIO
    TITLE "41:cjc023_7384"
    INDEX 01 11:35:32
  TRACK 529 AUDIO
    TITLE "0:"
    INDEX 01 11:37:60
  TRACK 530 AUDIO
    TITLE "42:cjc023_7385"
    INDEX 01 11:38:07
  TRACK 531 AUDIO
    TITLE "0:"
    INDEX 01 11:39:43
  TRACK 532 AUDIO
    TITLE "40:cjc023_7386"
    INDEX 01 11:40:39
  TRACK 533 AUDIO
    TITLE "0:"
    INDEX 01 11:41:42
  TRACK 534 AUDIO
    TITLE "41:cjc023_7387"
    INDEX 01 11:42:12
  TRACK 535 AUDIO
    TITLE "0:"
    INDEX 01 11:45:28
  TRACK 536 AUDIO
    TITLE "42:cjc023_7388"
    INDEX 01 11:45:50
  TRACK 537 AUDIO
    TITLE "0:"
    INDEX 01 11:48:31
  TRACK 538 AUDIO
    TITLE "41:cjc023_7389"
    INDEX 01 11:49:07
  TRACK 539 AUDIO
    TITLE "0:"
    INDEX 01 11:52:01
  TRACK 540 AUDIO
    TITLE "42:cjc023_7390"
    INDEX 01 11:52:26
  TRACK 541 AUDIO
    TITLE "0:"
    INDEX 01 11:55:15
  TRACK 542 AUDIO
    TITLE "41:cjc023_7391"
    INDEX 01 11:55:62
  TRACK 543 AUDIO
    TITLE "0:"
    INDEX 01 11:57:33
  TRACK 544 AUDIO
    TITLE "42:cjc023_7392"
    INDEX 01 11:57:55
  TRACK 545 AUDIO
    TITLE "0:"
    INDEX 01 11:59:07
  TRACK 546 AUDIO
    TITLE "41:cjc023_7393"
    INDEX 01 11:59:56
  TRACK 547 AUDIO
    TITLE "0:"
    INDEX 01 12:02:44
  TRACK 548 AUDIO
    TITLE "42:cjc023_7394"
    INDEX 01 12:02:66
  TRACK 549 AUDIO
    TITLE "0:"
    INDEX 01 12:05:51
  TRACK 550 AUDIO
    TITLE "40:cjc023_7395"
    INDEX 01 12:06:46
  TRACK 551 AUDIO
    TITLE "0:"
    INDEX 01 12:07:50
  TRACK 552 AUDIO
    TITLE "41:cjc023_7396"
    INDEX 01 12:08:22
  TRACK 553 AUDIO
    TITLE "0:"
    INDEX 01 12:12:68
  TRACK 554 AUDIO
    TITLE "42:cjc023_7397"
    INDEX 01 12:13:17
  TRACK 555 AUDIO
    TITLE "0:"
    INDEX 01 12:16:56
  TRACK 556 AUDIO
    TITLE "41:cjc023_7398"
    INDEX 01 12:17:26
  TRACK 557 AUDIO
    TITLE "0:"
    INDEX 01 12:19:08
  TRACK 558 AUDIO
    TITLE "42:cjc023_7399"
    INDEX 01 12:19:29
  TRACK 559 AUDIO
    TITLE "0:"
    INDEX 01 12:20:64
  TRACK 560 AUDIO
    TITLE "40:cjc023_7400"
    INDEX 01 12:21:59
  TRACK 561 AUDIO
    TITLE "0:"
    INDEX 01 12:22:59
  TRACK 562 AUDIO
    TITLE "41:cjc023_7401"
    INDEX 01 12:23:31
  TRACK 563 AUDIO
    TITLE "0:"
    INDEX 01 12:25:51
  TRACK 564 AUDIO
    TITLE "42:cjc023_7402"
    INDEX 01 12:25:71
  TRACK 565 AUDIO
    TITLE "0:"
    INDEX 01 12:27:50
  TRACK 566 AUDIO
    TITLE "41:cjc023_7403"
    INDEX 01 12:28:24
  TRACK 567 AUDIO
    TITLE "0:"
    INDEX 01 12:30:17
  TRACK 568 AUDIO
    TITLE "42:cjc023_7404"
    INDEX 01 12:30:37
  TRACK 569 AUDIO
    TITLE "0:"
    INDEX 01 12:32:00
  TRACK 570 AUDIO
    TITLE "40:cjc023_7405"
    INDEX 01 12:32:71
  TRACK 571 AUDIO
    TITLE "0:"
    INDEX 01 12:33:69
  TRACK 572 AUDIO
    TITLE "41:cjc023_7406"
    INDEX 01 12:34:39
  TRACK 573 AUDIO
    TITLE "0:"
    INDEX 01 12:36:43
  TRACK 574 AUDIO
    TITLE "42:cjc023_7407"
    INDEX 01 12:36:67
  TRACK 575 AUDIO
    TITLE "0:"
    INDEX 01 12:38:42
  TRACK 576 AUDIO
    TITLE "40:cjc023_7408"
    INDEX 01 12:39:40
  TRACK 577 AUDIO
    TITLE "0:"
    INDEX 01 12:40:59
  TRACK 578 AUDIO
    TITLE "41:cjc023_7409"
    INDEX 01 12:41:29
  TRACK 579 AUDIO
    TITLE "0:"
    INDEX 01 12:43:32
  TRACK 580 AUDIO
    TITLE "42:cjc023_7410"
    INDEX 01 12:43:53
  TRACK 581 AUDIO
    TITLE "0:"
    INDEX 01 12:45:58
  TRACK 582 AUDIO
    TITLE "41:cjc023_7411"
    INDEX 01 12:46:28
  TRACK 583 AUDIO
    TITLE "0:"
    INDEX 01 12:48:09
  TRACK 584 AUDIO
    TITLE "42:cjc023_7412"
    INDEX 01 12:48:31
  TRACK 585 AUDIO
    TITLE "0:"
    INDEX 01 12:50:45
  TRACK 586 AUDIO
    TITLE "41:cjc023_7413"
    INDEX 01 12:51:14
  TRACK 587 AUDIO
    TITLE "0:"
    INDEX 01 12:53:09
  TRACK 588 AUDIO
    TITLE "42:cjc023_7414"
    INDEX 01 12:53:28
  TRACK 589 AUDIO
    TITLE "0:"
    INDEX 01 12:55:09
  TRACK 590 AUDIO
    TITLE "40:cjc023_7415"
    INDEX 01 12:56:05
  TRACK 591 AUDIO
    TITLE "0:"
    INDEX 01 12:57:10
  TRACK 592 AUDIO
    TITLE "41:cjc023_7416"
    INDEX 01 12:57:57
  TRACK 593 AUDIO
    TITLE "0:"
    INDEX 01 13:01:33
  TRACK 594 AUDIO
    TITLE "42:cjc023_7417"
    INDEX 01 13:01:55
  TRACK 595 AUDIO
    TITLE "0:"
    INDEX 01 13:04:57
  TRACK 596 AUDIO
    TITLE "41:cjc023_7418"
    INDEX 01 13:05:27
  TRACK 597 AUDIO
    TITLE "0:"
    INDEX 01 13:08:14
  TRACK 598 AUDIO
    TITLE "42:cjc023_7419"
    INDEX 01 13:08:37
  TRACK 599 AUDIO
    TITLE "0:"
    INDEX 01 13:10:66
  TRACK 600 AUDIO
    TITLE "40:cjc023_7420"
    INDEX 01 13:11:61
  TRACK 601 AUDIO
    TITLE "0:"
    INDEX 01 13:12:61
  TRACK 602 AUDIO
    TITLE "41:cjc023_7421"
    INDEX 01 13:13:35
  TRACK 603 AUDIO
    TITLE "0:"
    INDEX 01 13:14:58
  TRACK 604 AUDIO
    TITLE "42:cjc023_7422"
    INDEX 01 13:15:04
  TRACK 605 AUDIO
    TITLE "0:"
    INDEX 01 13:16:72
  TRACK 606 AUDIO
    TITLE "41:cjc023_7423"
    INDEX 01 13:17:48
  TRACK 607 AUDIO
    TITLE "0:"
    INDEX 01 13:19:14
  TRACK 608 AUDIO
    TITLE "42:cjc023_7424"
    INDEX 01 13:19:33
  TRACK 609 AUDIO
    TITLE "0:"
    INDEX 01 13:21:22
  TRACK 610 AUDIO
    TITLE "40:cjc023_7425"
    INDEX 01 13:22:20
  TRACK 611 AUDIO
    TITLE "0:"
    INDEX 01 13:23:47
  TRACK 612 AUDIO
    TITLE "41:cjc023_7426"
    INDEX 01 13:24:17
  TRACK 613 AUDIO
    TITLE "0:"
    INDEX 01 13:27:35
  TRACK 614 AUDIO
    TITLE "42:cjc023_7427"
    INDEX 01 13:27:56
  TRACK 615 AUDIO
    TITLE "0:"
    INDEX 01 13:30:49
  TRACK 616 AUDIO
    TITLE "41:cjc023_7428"
    INDEX 01 13:31:21
  TRACK 617 AUDIO
    TITLE "0:"
    INDEX 01 13:33:51
  TRACK 618 AUDIO
    TITLE "42:cjc023_7429"
    INDEX 01 13:34:00
  TRACK 619 AUDIO
    TITLE "0:"
    INDEX 01 13:36:20
  TRACK 620 AUDIO
    TITLE "41:cjc023_7430"
    INDEX 01 13:36:67
  TRACK 621 AUDIO
    TITLE "0:"
    INDEX 01 13:39:62
  TRACK 622 AUDIO
    TITLE "42:cjc023_7431"
    INDEX 01 13:40:10
  TRACK 623 AUDIO
    TITLE "0:"
    INDEX 01 13:43:20
  TRACK 624 AUDIO
    TITLE "40:cjc023_7432"
    INDEX 01 13:44:20
  TRACK 625 AUDIO
    TITLE "0:"
    INDEX 01 13:45:41
  TRACK 626 AUDIO
    TITLE "41:cjc023_7433"
    INDEX 01 13:46:13
  TRACK 627 AUDIO
    TITLE "0:"
    INDEX 01 13:47:67
  TRACK 628 AUDIO
    TITLE "42:cjc023_7434"
    INDEX 01 13:48:13
  TRACK 629 AUDIO
    TITLE "0:"
    INDEX 01 13:50:06
  TRACK 630 AUDIO
    TITLE "41:cjc023_7435"
    INDEX 01 13:50:54
  TRACK 631 AUDIO
    TITLE "0:"
    INDEX 01 13:52:48
  TRACK 632 AUDIO
    TITLE "42:cjc023_7436"
    INDEX 01 13:52:72
  TRACK 633 AUDIO
    TITLE "0:"
    INDEX 01 13:54:69
  TRACK 634 AUDIO
    TITLE "40:cjc023_7437"
    INDEX 01 13:55:66
  TRACK 635 AUDIO
    TITLE "0:"
    INDEX 01 13:57:24
  TRACK 636 AUDIO
    TITLE "41:cjc023_7438"
    INDEX 01 13:57:71
  TRACK 637 AUDIO
    TITLE "0:"
    INDEX 01 13:59:74
  TRACK 638 AUDIO
    TITLE "42:cjc023_7439"
    INDEX 01 14:00:19
  TRACK 639 AUDIO
    TITLE "0:"
    INDEX 01 14:02:18
  TRACK 640 AUDIO
    TITLE "41:cjc023_7440"
    INDEX 01 14:02:65
  TRACK 641 AUDIO
    TITLE "0:"
    INDEX 01 14:04:54
  TRACK 642 AUDIO
    TITLE "42:cjc023_7441"
    INDEX 01 14:04:73
  TRACK 643 AUDIO
    TITLE "0:"
    INDEX 01 14:06:74
  TRACK 644 AUDIO
    TITLE "40:cjc023_7442"
    INDEX 01 14:07:70
  TRACK 645 AUDIO
    TITLE "0:"
    INDEX 01 14:08:71
  TRACK 646 AUDIO
    TITLE "41:cjc023_7443"
    INDEX 01 14:09:41
  TRACK 647 AUDIO
    TITLE "0:"
    INDEX 01 14:12:45
  TRACK 648 AUDIO
    TITLE "42:cjc023_7444"
    INDEX 01 14:12:69
  TRACK 649 AUDIO
    TITLE "0:"
    INDEX 01 14:15:59
  TRACK 650 AUDIO
    TITLE "41:cjc023_7445"
    INDEX 01 14:16:35
  TRACK 651 AUDIO
    TITLE "0:"
    INDEX 01 14:17:62
  TRACK 652 AUDIO
    TITLE "42:cjc023_7446"
    INDEX 01 14:18:09
  TRACK 653 AUDIO
    TITLE "0:"
    INDEX 01 14:19:59
  TRACK 654 AUDIO
    TITLE "40:cjc023_7447"
    INDEX 01 14:20:57
  TRACK 655 AUDIO
    TITLE "0:"
    INDEX 01 14:21:60
  TRACK 656 AUDIO
    TITLE "41:cjc023_7448"
    INDEX 01 14:22:32
  TRACK 657 AUDIO
    TITLE "0:"
    INDEX 01 14:25:58
  TRACK 658 AUDIO
    TITLE "42:cjc023_7449"
    INDEX 01 14:26:04
  TRACK 659 AUDIO
    TITLE "0:"
    INDEX 01 14:29:01
  TRACK 660 AUDIO
    TITLE "41:cjc023_7450"
    INDEX 01 14:29:50
  TRACK 661 AUDIO
    TITLE "0:"
    INDEX 01 14:31:52
  TRACK 662 AUDIO
    TITLE "42:cjc023_7451"
    INDEX 01 14:31:74
  TRACK 663 AUDIO
    TITLE "0:"
    INDEX 01 14:33:57
  TRACK 664 AUDIO
    TITLE "41:cjc023_7452"
    INDEX 01 14:34:29
  TRACK 665 AUDIO
    TITLE "0:"
    INDEX 01 14:36:63
  TRACK 666 AUDIO
    TITLE "42:cjc023_7453"
    INDEX 01 14:37:10
  TRACK 667 AUDIO
    TITLE "0:"
    INDEX 01 14:39:68
  TRACK 668 AUDIO
    TITLE "40:cjc023_7454"
    INDEX 01 14:40:63
  TRACK 669 AUDIO
    TITLE "0:"
    INDEX 01 14:41:69
  TRACK 670 AUDIO
    TITLE "41:cjc023_7455"
    INDEX 01 14:42:39
  TRACK 671 AUDIO
    TITLE "0:"
    INDEX 01 14:44:02
  TRACK 672 AUDIO
    TITLE "42:cjc023_7456"
    INDEX 01 14:44:24
  TRACK 673 AUDIO
    TITLE "0:"
    INDEX 01 14:45:58
  TRACK 674 AUDIO
    TITLE "41:cjc023_7457"
    INDEX 01 14:46:32
  TRACK 675 AUDIO
    TITLE "0:"
    INDEX 01 14:49:23
  TRACK 676 AUDIO
    TITLE "42:cjc023_7458"
    INDEX 01 14:49:45
  TRACK 677 AUDIO
    TITLE "0:"
    INDEX 01 14:52:27
  TRACK 678 AUDIO
    TITLE "41:cjc023_7459"
    INDEX 01 14:52:74
  TRACK 679 AUDIO
    TITLE "0:"
    INDEX 01 14:56:05
  TRACK 680 AUDIO
    TITLE "42:cjc023_7460"
    INDEX 01 14:56:27
  TRACK 681 AUDIO
    TITLE "0:"
    INDEX 01 14:58:53
  TRACK 682 AUDIO
    TITLE "41:cjc023_7461"
    INDEX 01 14:59:21
  TRACK 683 AUDIO
    TITLE "0:"
    INDEX 01 15:02:00
  TRACK 684 AUDIO
    TITLE "42:cjc023_7462"
    INDEX 01 15:02:20
  TRACK 685 AUDIO
    TITLE "0:"
    INDEX 01 15:04:52
  TRACK 686 AUDIO
    TITLE "40:cjc023_7463"
    INDEX 01 15:05:49
  TRACK 687 AUDIO
    TITLE "0:"
    INDEX 01 15:06:68
  TRACK 688 AUDIO
    TITLE "41:cjc023_7464"
    INDEX 01 15:07:39
  TRACK 689 AUDIO
    TITLE "0:"
    INDEX 01 15:09:47
  TRACK 690 AUDIO
    TITLE "42:cjc023_7465"
    INDEX 01 15:09:67
  TRACK 691 AUDIO
    TITLE "0:"
    INDEX 01 15:12:00
  TRACK 692 AUDIO
    TITLE "41:cjc023_7466"
    INDEX 01 15:12:48
  TRACK 693 AUDIO
    TITLE "0:"
    INDEX 01 15:15:40
  TRACK 694 AUDIO
    TITLE "42:cjc023_7467"
    INDEX 01 15:15:60
  TRACK 695 AUDIO
    TITLE "0:"
    INDEX 01 15:18:46
  TRACK 696 AUDIO
    TITLE "41:cjc023_7468"
    INDEX 01 15:19:14
  TRACK 697 AUDIO
    TITLE "0:"
    INDEX 01 15:21:66
  TRACK 698 AUDIO
    TITLE "42:cjc023_7469"
    INDEX 01 15:22:13
  TRACK 699 AUDIO
    TITLE "0:"
    INDEX 01 15:24:35
  TRACK 700 AUDIO
    TITLE "40:cjc023_7470"
    INDEX 01 15:25:29
  TRACK 701 AUDIO
    TITLE "0:"
    INDEX 01 15:26:38
  TRACK 702 AUDIO
    TITLE "41:cjc023_7471"
    INDEX 01 15:27:08
  TRACK 703 AUDIO
    TITLE "0:"
    INDEX 01 15:28:64
  TRACK 704 AUDIO
    TITLE "42:cjc023_7472"
    INDEX 01 15:29:11
  TRACK 705 AUDIO
    TITLE "0:"
    INDEX 01 15:30:55
  TRACK 706 AUDIO
    TITLE "41:cjc023_7473"
    INDEX 01 15:31:23
  TRACK 707 AUDIO
    TITLE "0:"
    INDEX 01 15:33:48
  TRACK 708 AUDIO
    TITLE "42:cjc023_7474"
    INDEX 01 15:33:69
  TRACK 709 AUDIO
    TITLE "0:"
    INDEX 01 15:35:66
  TRACK 710 AUDIO
    TITLE "41:cjc023_7475"
    INDEX 01 15:36:36
  TRACK 711 AUDIO
    TITLE "0:"
    INDEX 01 15:38:33
  TRACK 712 AUDIO
    TITLE "42:cjc023_7476"
    INDEX 01 15:38:55
  TRACK 713 AUDIO
    TITLE "0:"
    INDEX 01 15:41:04
  TRACK 714 AUDIO
    TITLE "41:cjc023_7477"
    INDEX 01 15:41:49
  TRACK 715 AUDIO
    TITLE "0:"
    INDEX 01 15:45:00
  TRACK 716 AUDIO
    TITLE "42:cjc023_7478"
    INDEX 01 15:45:23
  TRACK 717 AUDIO
    TITLE "0:"
    INDEX 01 15:47:58
  TRACK 718 AUDIO
    TITLE "41:cjc023_7479"
    INDEX 01 15:48:30
  TRACK 719 AUDIO
    TITLE "0:"
    INDEX 01 15:49:55
  TRACK 720 AUDIO
    TITLE "42:cjc023_7480"
    INDEX 01 15:50:01
  TRACK 721 AUDIO
    TITLE "0:"
    INDEX 01 15:51:51
  TRACK 722 AUDIO
    TITLE "40:cjc023_7481"
    INDEX 01 15:52:47
  TRACK 723 AUDIO
    TITLE "0:"
    INDEX 01 15:53:66
  TRACK 724 AUDIO
    TITLE "41:cjc023_7482"
    INDEX 01 15:54:36
  TRACK 725 AUDIO
    TITLE "0:"
    INDEX 01 15:58:50
  TRACK 726 AUDIO
    TITLE "42:cjc023_7483"
    INDEX 01 15:58:71
  TRACK 727 AUDIO
    TITLE "0:"
    INDEX 01 16:01:60
  TRACK 728 AUDIO
    TITLE "41:cjc023_7484"
    INDEX 01 16:02:34
  TRACK 729 AUDIO
    TITLE "0:"
    INDEX 01 16:04:72
  TRACK 730 AUDIO
    TITLE "42:cjc023_7485"
    INDEX 01 16:05:18
  TRACK 731 AUDIO
    TITLE "0:"
    INDEX 01 16:08:03
  TRACK 732 AUDIO
    TITLE "40:cjc023_7486"
    INDEX 01 16:08:73
  TRACK 733 AUDIO
    TITLE "0:"
    INDEX 01 16:10:10
  TRACK 734 AUDIO
    TITLE "41:cjc023_7487"
    INDEX 01 16:10:59
  TRACK 735 AUDIO
    TITLE "0:"
    INDEX 01 16:12:71
  TRACK 736 AUDIO
    TITLE "42:cjc023_7488"
    INDEX 01 16:13:20
  TRACK 737 AUDIO
    TITLE "0:"
    INDEX 01 16:15:09
  TRACK 738 AUDIO
    TITLE "41:cjc023_7489"
    INDEX 01 16:15:54
  TRACK 739 AUDIO
    TITLE "0:"
    INDEX 01 16:17:65
  TRACK 740 AUDIO
    TITLE "42:cjc023_7490"
    INDEX 01 16:18:11
  TRACK 741 AUDIO
    TITLE "0:"
    INDEX 01 16:20:08
  TRACK 742 AUDIO
    TITLE "41:cjc023_7491"
    INDEX 01 16:20:53
  TRACK 743 AUDIO
    TITLE "0:"
    INDEX 01 16:22:46
  TRACK 744 AUDIO
    TITLE "42:cjc023_7492"
    INDEX 01 16:22:70
  TRACK 745 AUDIO
    TITLE "0:"
    INDEX 01 16:24:59
  TRACK 746 AUDIO
    TITLE "40:cjc023_7493"
    INDEX 01 16:25:56
  TRACK 747 AUDIO
    TITLE "0:"
    INDEX 01 16:26:67
  TRACK 748 AUDIO
    TITLE "41:cjc023_7494"
    INDEX 01 16:27:39
  TRACK 749 AUDIO
    TITLE "0:"
    INDEX 01 16:30:71
  TRACK 750 AUDIO
    TITLE "42:cjc023_7495"
    INDEX 01 16:31:20
  TRACK 751 AUDIO
    TITLE "0:"
    INDEX 01 16:34:63
  TRACK 752 AUDIO
    TITLE "41:cjc023_7496"
    INDEX 01 16:35:35
  TRACK 753 AUDIO
    TITLE "0:"
    INDEX 01 16:37:73
  TRACK 754 AUDIO
    TITLE "42:cjc023_7497"
    INDEX 01 16:38:20
  TRACK 755 AUDIO
    TITLE "0:"
    INDEX 01 16:40:32
  TRACK 756 AUDIO
    TITLE "41:cjc023_7498"
    INDEX 01 16:41:02
  TRACK 757 AUDIO
    TITLE "0:"
    INDEX 01 16:43:46
  TRACK 758 AUDIO
    TITLE "42:cjc023_7499"
    INDEX 01 16:43:70
  TRACK 759 AUDIO
    TITLE "0:"
    INDEX 01 16:46:35
  TRACK 760 AUDIO
    TITLE "40:cjc023_7500"
    INDEX 01 16:47:32
  TRACK 761 AUDIO
    TITLE "0:"
    INDEX 01 16:48:40
  TRACK 762 AUDIO
    TITLE "41:cjc023_7501"
    INDEX 01 16:49:12
  TRACK 763 AUDIO
    TITLE "0:"
    INDEX 01 16:51:63
  TRACK 764 AUDIO
    TITLE "42:cjc023_7502"
    INDEX 01 16:52:08
  TRACK 765 AUDIO
    TITLE "0:"
    INDEX 01 16:55:01
  TRACK 766 AUDIO
    TITLE "41:cjc023_7503"
    INDEX 01 16:55:53
  TRACK 767 AUDIO
    TITLE "0:"
    INDEX 01 16:58:28
  TRACK 768 AUDIO
    TITLE "42:cjc023_7504"
    INDEX 01 16:58:50
  TRACK 769 AUDIO
    TITLE "0:"
    INDEX 01 17:00:15
  TRACK 770 AUDIO
    TITLE "40:cjc023_7505"
    INDEX 01 17:01:11
  TRACK 771 AUDIO
    TITLE "0:"
    INDEX 01 17:02:08
  TRACK 772 AUDIO
    TITLE "41:cjc023_7506"
    INDEX 01 17:02:54
  TRACK 773 AUDIO
    TITLE "0:"
    INDEX 01 17:05:30
  TRACK 774 AUDIO
    TITLE "42:cjc023_7507"
    INDEX 01 17:05:54
  TRACK 775 AUDIO
    TITLE "0:"
    INDEX 01 17:08:31
  TRACK 776 AUDIO
    TITLE "41:cjc023_7508"
    INDEX 01 17:09:05
  TRACK 777 AUDIO
    TITLE "0:"
    INDEX 01 17:10:45
  TRACK 778 AUDIO
    TITLE "42:cjc023_7509"
    INDEX 01 17:10:67
  TRACK 779 AUDIO
    TITLE "0:"
    INDEX 01 17:12:32
  TRACK 780 AUDIO
    TITLE "41:cjc023_7510"
    INDEX 01 17:13:04
  TRACK 781 AUDIO
    TITLE "0:"
    INDEX 01 17:14:66
  TRACK 782 AUDIO
    TITLE "42:cjc023_7511"
    INDEX 01 17:15:15
  TRACK 783 AUDIO
    TITLE "0:"
    INDEX 01 17:17:00
  TRACK 784 AUDIO
    TITLE "40:cjc023_7512"
    INDEX 01 17:17:73
  TRACK 785 AUDIO
    TITLE "0:"
    INDEX 01 17:19:03
  TRACK 786 AUDIO
    TITLE "41:cjc023_7513"
    INDEX 01 17:19:50
  TRACK 787 AUDIO
    TITLE "0:"
    INDEX 01 17:22:42
  TRACK 788 AUDIO
    TITLE "42:cjc023_7514"
    INDEX 01 17:22:62
  TRACK 789 AUDIO
    TITLE "0:"
    INDEX 01 17:25:13
  TRACK 790 AUDIO
    TITLE "41:cjc023_7515"
    INDEX 01 17:25:62
  TRACK 791 AUDIO
    TITLE "0:"
    INDEX 01 17:29:35
  TRACK 792 AUDIO
    TITLE "42:cjc023_7516"
    INDEX 01 17:29:54
  TRACK 793 AUDIO
    TITLE "0:"
    INDEX 01 17:32:35
  TRACK 794 AUDIO
    TITLE "41:cjc023_7517"
    INDEX 01 17:33:05
  TRACK 795 AUDIO
    TITLE "0:"
    INDEX 01 17:35:45
  TRACK 796 AUDIO
    TITLE "42:cjc023_7518"
    INDEX 01 17:35:69
  TRACK 797 AUDIO
    TITLE "0:"
    INDEX 01 17:37:56
  TRACK 798 AUDIO
    TITLE "41:cjc023_7519"
    INDEX 01 17:38:34
  TRACK 799 AUDIO
    TITLE "0:"
    INDEX 01 17:41:10
  TRACK 800 AUDIO
    TITLE "42:cjc023_7520"
    INDEX 01 17:41:30
  TRACK 801 AUDIO
    TITLE "0:"
    INDEX 01 17:43:13
  TRACK 802 AUDIO
    TITLE "41:cjc023_7521"
    INDEX 01 17:43:62
  TRACK 803 AUDIO
    TITLE "0:"
    INDEX 01 17:46:39
  TRACK 804 AUDIO
    TITLE "42:cjc023_7522"
    INDEX 01 17:46:63
  TRACK 805 AUDIO
    TITLE "0:"
    INDEX 01 17:49:41
  TRACK 806 AUDIO
    TITLE "40:cjc023_7523"
    INDEX 01 17:50:37
  TRACK 807 AUDIO
    TITLE "0:"
    INDEX 01 17:51:48
  TRACK 808 AUDIO
    TITLE "41:cjc023_7524"
    INDEX 01 17:52:14
  TRACK 809 AUDIO
    TITLE "0:"
    INDEX 01 17:54:42
  TRACK 810 AUDIO
    TITLE "42:cjc023_7525"
    INDEX 01 17:54:66
  TRACK 811 AUDIO
    TITLE "0:"
    INDEX 01 17:57:13
  TRACK 812 AUDIO
    TITLE "41:cjc023_7526"
    INDEX 01 17:57:60
  TRACK 813 AUDIO
    TITLE "0:"
    INDEX 01 18:00:06
  TRACK 814 AUDIO
    TITLE "42:cjc023_7527"
    INDEX 01 18:00:27
  TRACK 815 AUDIO
    TITLE "0:"
    INDEX 01 18:03:00
  TRACK 816 AUDIO
    TITLE "40:cjc023_7528"
    INDEX 01 18:03:71
  TRACK 817 AUDIO
    TITLE "0:"
    INDEX 01 18:05:21
  TRACK 818 AUDIO
    TITLE "41:cjc023_7529"
    INDEX 01 18:05:72
  TRACK 819 AUDIO
    TITLE "0:"
    INDEX 01 18:08:60
  TRACK 820 AUDIO
    TITLE "42:cjc023_7530"
    INDEX 01 18:09:11
  TRACK 821 AUDIO
    TITLE "0:"
    INDEX 01 18:12:13
  TRACK 822 AUDIO
    TITLE "41:cjc023_7531"
    INDEX 01 18:12:62
  TRACK 823 AUDIO
    TITLE "0:"
    INDEX 01 18:15:31
  TRACK 824 AUDIO
    TITLE "42:cjc023_7532"
    INDEX 01 18:15:52
  TRACK 825 AUDIO
    TITLE "0:"
    INDEX 01 18:18:29
  TRACK 826 AUDIO
    TITLE "41:cjc023_7533"
    INDEX 01 18:19:01
  TRACK 827 AUDIO
    TITLE "0:"
    INDEX 01 18:21:71
  TRACK 828 AUDIO
    TITLE "42:cjc023_7534"
    INDEX 01 18:22:17
  TRACK 829 AUDIO
    TITLE "0:"
    INDEX 01 18:24:65
  TRACK 830 AUDIO
    TITLE "40:cjc023_7535"
    INDEX 01 18:25:65
  TRACK 831 AUDIO
    TITLE "0:"
    INDEX 01 18:27:13
  TRACK 832 AUDIO
    TITLE "41:cjc023_7536"
    INDEX 01 18:27:60
  TRACK 833 AUDIO
    TITLE "0:"
    INDEX 01 18:29:58
  TRACK 834 AUDIO
    TITLE "42:cjc023_7537"
    INDEX 01 18:30:05
  TRACK 835 AUDIO
    TITLE "0:"
    INDEX 01 18:32:08
  TRACK 836 AUDIO
    TITLE "41:cjc023_7538"
    INDEX 01 18:32:55
  TRACK 837 AUDIO
    TITLE "0:"
    INDEX 01 18:35:57
  TRACK 838 AUDIO
    TITLE "42:cjc023_7539"
    INDEX 01 18:36:06
  TRACK 839 AUDIO
    TITLE "0:"
    INDEX 01 18:38:34
  TRACK 840 AUDIO
    TITLE "40:cjc023_7540"
    INDEX 01 18:39:31
  TRACK 841 AUDIO
    TITLE "0:"
    INDEX 01 18:40:74
  TRACK 842 AUDIO
    TITLE "41:cjc023_7541"
    INDEX 01 18:41:44
  TRACK 843 AUDIO
    TITLE "0:"
    INDEX 01 18:42:69
  TRACK 844 AUDIO
    TITLE "42:cjc023_7542"
    INDEX 01 18:43:17
  TRACK 845 AUDIO
    TITLE "0:"
    INDEX 01 18:45:14
  TRACK 846 AUDIO
    TITLE "41:cjc023_7543"
    INDEX 01 18:45:61
  TRACK 847 AUDIO
    TITLE "0:"
    INDEX 01 18:48:54
  TRACK 848 AUDIO
    TITLE "42:cjc023_7544"
    INDEX 01 18:49:10
  TRACK 849 AUDIO
    TITLE "0:"
    INDEX 01 18:51:21
  TRACK 850 AUDIO
    TITLE "40:cjc023_7545"
    INDEX 01 18:52:20
  TRACK 851 AUDIO
    TITLE "0:"
    INDEX 01 18:53:22
  TRACK 852 AUDIO
    TITLE "41:cjc023_7546"
    INDEX 01 18:53:69
  TRACK 853 AUDIO
    TITLE "0:"
    INDEX 01 18:55:66
  TRACK 854 AUDIO
    TITLE "42:cjc023_7547"
    INDEX 01 18:56:12
  TRACK 855 AUDIO
    TITLE "0:"
    INDEX 01 18:57:39
  TRACK 856 AUDIO
    TITLE "41:cjc023_7548"
    INDEX 01 18:58:11
  TRACK 857 AUDIO
    TITLE "0:"
    INDEX 01 18:59:58
  TRACK 858 AUDIO
    TITLE "42:cjc023_7549"
    INDEX 01 19:00:02
  TRACK 859 AUDIO
    TITLE "0:"
    INDEX 01 19:01:62
  TRACK 860 AUDIO
    TITLE "41:cjc023_7550"
    INDEX 01 19:02:36
  TRACK 861 AUDIO
    TITLE "0:"
    INDEX 01 19:05:60
  TRACK 862 AUDIO
    TITLE "42:cjc023_7551"
    INDEX 01 19:06:07
  TRACK 863 AUDIO
    TITLE "0:"
    INDEX 01 19:08:59
  TRACK 864 AUDIO
    TITLE "41:cjc023_7552"
    INDEX 01 19:09:31
  TRACK 865 AUDIO
    TITLE "0:"
    INDEX 01 19:12:29
  TRACK 866 AUDIO
    TITLE "42:cjc023_7553"
    INDEX 01 19:12:52
  TRACK 867 AUDIO
    TITLE "0:"
    INDEX 01 19:15:25
  TRACK 868 AUDIO
    TITLE "40:cjc023_7554"
    INDEX 01 19:16:19
  TRACK 869 AUDIO
    TITLE "0:"
    INDEX 01 19:17:26
  TRACK 870 AUDIO
    TITLE "41:cjc023_7555"
    INDEX 01 19:18:00
  TRACK 871 AUDIO
    TITLE "0:"
    INDEX 01 19:20:38
  TRACK 872 AUDIO
    TITLE "42:cjc023_7556"
    INDEX 01 19:20:60
  TRACK 873 AUDIO
    TITLE "0:"
    INDEX 01 19:22:65
  TRACK 874 AUDIO
    TITLE "40:cjc023_7557"
    INDEX 01 19:23:60
  TRACK 875 AUDIO
    TITLE "0:"
    INDEX 01 19:25:00
  TRACK 876 AUDIO
    TITLE "41:cjc023_7558"
    INDEX 01 19:25:47
  TRACK 877 AUDIO
    TITLE "0:"
    INDEX 01 19:28:20
  TRACK 878 AUDIO
    TITLE "42:cjc023_7559"
    INDEX 01 19:28:44
  TRACK 879 AUDIO
    TITLE "0:"
    INDEX 01 19:31:30
  TRACK 880 AUDIO
    TITLE "41:cjc023_7560"
    INDEX 01 19:32:02
  TRACK 881 AUDIO
    TITLE "0:"
    INDEX 01 19:35:26
  TRACK 882 AUDIO
    TITLE "42:cjc023_7561"
    INDEX 01 19:35:50
  TRACK 883 AUDIO
    TITLE "0:"
    INDEX 01 19:38:05
  TRACK 884 AUDIO
    TITLE "41:cjc023_7562"
    INDEX 01 19:38:50
  TRACK 885 AUDIO
    TITLE "0:"
    INDEX 01 19:40:13
  TRACK 886 AUDIO
    TITLE "42:cjc023_7563"
    INDEX 01 19:40:37
  TRACK 887 AUDIO
    TITLE "0:"
    INDEX 01 19:42:26
  TRACK 888 AUDIO
    TITLE "40:cjc023_7564"
    INDEX 01 19:43:27
  TRACK 889 AUDIO
    TITLE "0:"
    INDEX 01 19:44:41
  TRACK 890 AUDIO
    TITLE "41:cjc023_7565"
    INDEX 01 19:45:19
  TRACK 891 AUDIO
    TITLE "0:"
    INDEX 01 19:47:61
  TRACK 892 AUDIO
    TITLE "42:cjc023_7566"
    INDEX 01 19:48:05
  TRACK 893 AUDIO
    TITLE "0:"
    INDEX 01 19:50:30
  TRACK 894 AUDIO
    TITLE "41:cjc023_7567"
    INDEX 01 19:51:02
  TRACK 895 AUDIO
    TITLE "0:"
    INDEX 01 19:54:33
  TRACK 896 AUDIO
    TITLE "42:cjc023_7568"
    INDEX 01 19:54:55
  TRACK 897 AUDIO
    TITLE "0:"
    INDEX 01 19:56:56
  TRACK 898 AUDIO
    TITLE "40:cjc023_7569"
    INDEX 01 19:57:51
  TRACK 899 AUDIO
    TITLE "0:"
    INDEX 01 19:58:51
  TRACK 900 AUDIO
    TITLE "41:cjc023_7570"
    INDEX 01 19:59:32
  TRACK 901 AUDIO
    TITLE "0:"
    INDEX 01 20:03:11
  TRACK 902 AUDIO
    TITLE "42:cjc023_7571"
    INDEX 01 20:03:32
  TRACK 903 AUDIO
    TITLE "0:"
    INDEX 01 20:05:55
  TRACK 904 AUDIO
    TITLE "41:cjc023_7572"
    INDEX 01 20:06:25
  TRACK 905 AUDIO
    TITLE "0:"
    INDEX 01 20:08:31
  TRACK 906 AUDIO
    TITLE "42:cjc023_7573"
    INDEX 01 20:08:55
  TRACK 907 AUDIO
    TITLE "0:"
    INDEX 01 20:11:00
  TRACK 908 AUDIO
    TITLE "41:cjc023_7574"
    INDEX 01 20:11:47
  TRACK 909 AUDIO
    TITLE "0:"
    INDEX 01 20:14:30
  TRACK 910 AUDIO
    TITLE "42:cjc023_7575"
    INDEX 01 20:14:52
  TRACK 911 AUDIO
    TITLE "0:"
    INDEX 01 20:16:41
  TRACK 912 AUDIO
    TITLE "40:cjc023_7576"
    INDEX 01 20:17:32
  TRACK 913 AUDIO
    TITLE "0:"
    INDEX 01 20:18:51
  TRACK 914 AUDIO
    TITLE "41:cjc023_7577"
    INDEX 01 20:19:25
  TRACK 915 AUDIO
    TITLE "0:"
    INDEX 01 20:21:65
  TRACK 916 AUDIO
    TITLE "42:cjc023_7578"
    INDEX 01 20:22:14
  TRACK 917 AUDIO
    TITLE "0:"
    INDEX 01 20:24:50
  TRACK 918 AUDIO
    TITLE "40:cjc023_7579"
    INDEX 01 20:25:44
  TRACK 919 AUDIO
    TITLE "0:"
    INDEX 01 20:26:59
  TRACK 920 AUDIO
    TITLE "41:cjc023_7580"
    INDEX 01 20:27:29
  TRACK 921 AUDIO
    TITLE "0:"
    INDEX 01 20:30:53
  TRACK 922 AUDIO
    TITLE "42:cjc023_7581"
    INDEX 01 20:31:05
  TRACK 923 AUDIO
    TITLE "0:"
    INDEX 01 20:33:45
  TRACK 924 AUDIO
    TITLE "41:cjc023_7582"
    INDEX 01 20:34:21
  TRACK 925 AUDIO
    TITLE "0:"
    INDEX 01 20:36:59
  TRACK 926 AUDIO
    TITLE "42:cjc023_7583"
    INDEX 01 20:37:08
  TRACK 927 AUDIO
    TITLE "0:"
    INDEX 01 20:39:20
  TRACK 928 AUDIO
    TITLE "40:cjc023_7584"
    INDEX 01 20:40:16
  TRACK 929 AUDIO
    TITLE "0:"
    INDEX 01 20:41:39
  TRACK 930 AUDIO
    TITLE "41:cjc023_7585"
    INDEX 01 20:42:11
  TRACK 931 AUDIO
    TITLE "0:"
    INDEX 01 20:44:17
  TRACK 932 AUDIO
    TITLE "42:cjc023_7586"
    INDEX 01 20:44:49
  TRACK 933 AUDIO
    TITLE "0:"
    INDEX 01 20:46:32
  TRACK 934 AUDIO
    TITLE "41:cjc023_7587"
    INDEX 01 20:47:04
  TRACK 935 AUDIO
    TITLE "0:"
    INDEX 01 20:48:56
  TRACK 936 AUDIO
    TITLE "42:cjc023_7588"
    INDEX 01 20:49:05
  TRACK 937 AUDIO
    TITLE "0:"
    INDEX 01 20:50:67
  TRACK 938 AUDIO
    TITLE "40:cjc023_7589"
    INDEX 01 20:51:64
  TRACK 939 AUDIO
    TITLE "0:"
    INDEX 01 20:53:03
  TRACK 940 AUDIO
    TITLE "41:cjc023_7590"
    INDEX 01 20:53:50
  TRACK 941 AUDIO
    TITLE "0:"
    INDEX 01 20:57:00
  TRACK 942 AUDIO
    TITLE "42:cjc023_7591"
    INDEX 01 20:57:22
  TRACK 943 AUDIO
    TITLE "0:"
    INDEX 01 20:59:70
  TRACK 944 AUDIO
    TITLE "40:cjc023_7592"
    INDEX 01 21:00:67
  TRACK 945 AUDIO
    TITLE "0:"
    INDEX 01 21:02:13
  TRACK 946 AUDIO
    TITLE "41:cjc023_7593"
    INDEX 01 21:02:60
  TRACK 947 AUDIO
    TITLE "0:"
    INDEX 01 21:04:40
  TRACK 948 AUDIO
    TITLE "42:cjc023_7594"
    INDEX 01 21:04:71
  TRACK 949 AUDIO
    TITLE "0:"
    INDEX 01 21:06:66
  TRACK 950 AUDIO
    TITLE "41:cjc023_7595"
    INDEX 01 21:07:40
  TRACK 951 AUDIO
    TITLE "0:"
    INDEX 01 21:09:43
  TRACK 952 AUDIO
    TITLE "42:cjc023_7596"
    INDEX 01 21:09:66
  TRACK 953 AUDIO
    TITLE "0:"
    INDEX 01 21:11:51
  TRACK 954 AUDIO
    TITLE "40:cjc023_7597"
    INDEX 01 21:12:49
  TRACK 955 AUDIO
    TITLE "0:"
    INDEX 01 21:13:60
  TRACK 956 AUDIO
    TITLE "41:cjc023_7598"
    INDEX 01 21:14:32
  TRACK 957 AUDIO
    TITLE "0:"
    INDEX 01 21:15:59
  TRACK 958 AUDIO
    TITLE "42:cjc023_7599"
    INDEX 01 21:16:08
  TRACK 959 AUDIO
    TITLE "0:"
    INDEX 01 21:17:70
  TRACK 960 AUDIO
    TITLE "41:cjc023_7600"
    INDEX 01 21:18:44
  TRACK 961 AUDIO
    TITLE "0:"
    INDEX 01 21:20:17
  TRACK 962 AUDIO
    TITLE "42:cjc023_7601"
    INDEX 01 21:20:43
  TRACK 963 AUDIO
    TITLE "0:"
    INDEX 01 21:22:40
  TRACK 964 AUDIO
    TITLE "40:cjc023_7602"
    INDEX 01 21:23:35
  TRACK 965 AUDIO
    TITLE "0:"
    INDEX 01 21:24:50
  TRACK 966 AUDIO
    TITLE "41:cjc023_7603"
    INDEX 01 21:25:32
  TRACK 967 AUDIO
    TITLE "0:"
    INDEX 01 21:28:30
  TRACK 968 AUDIO
    TITLE "42:cjc023_7604"
    INDEX 01 21:28:52
  TRACK 969 AUDIO
    TITLE "0:"
    INDEX 01 21:31:11
  TRACK 970 AUDIO
    TITLE "41:cjc023_7605"
    INDEX 01 21:31:60
  TRACK 971 AUDIO
    TITLE "0:"
    INDEX 01 21:34:00
  TRACK 972 AUDIO
    TITLE "42:cjc023_7606"
    INDEX 01 21:34:21
  TRACK 973 AUDIO
    TITLE "0:"
    INDEX 01 21:36:24
  TRACK 974 AUDIO
    TITLE "41:cjc023_7607"
    INDEX 01 21:36:71
  TRACK 975 AUDIO
    TITLE "0:"
    INDEX 01 21:38:42
  TRACK 976 AUDIO
    TITLE "42:cjc023_7608"
    INDEX 01 21:38:62
  TRACK 977 AUDIO
    TITLE "0:"
    INDEX 01 21:40:59
  TRACK 978 AUDIO
    TITLE "40:cjc023_7609"
    INDEX 01 21:41:55
  TRACK 979 AUDIO
    TITLE "0:"
    INDEX 01 21:43:06
  TRACK 980 AUDIO
    TITLE "41:cjc023_7610"
    INDEX 01 21:43:53
  TRACK 981 AUDIO
    TITLE "0:"
    INDEX 01 21:45:60
  TRACK 982 AUDIO
    TITLE "42:cjc023_7611"
    INDEX 01 21:46:07
  TRACK 983 AUDIO
    TITLE "0:"
    INDEX 01 21:48:15
  TRACK 984 AUDIO
    TITLE "41:cjc023_7612"
    INDEX 01 21:48:62
  TRACK 985 AUDIO
    TITLE "0:"
    INDEX 01 21:52:11
  TRACK 986 AUDIO
    TITLE "42:cjc023_7613"
    INDEX 01 21:52:33
  TRACK 987 AUDIO
    TITLE "0:"
    INDEX 01 21:55:15
  TRACK 988 AUDIO
    TITLE "41:cjc023_7614"
    INDEX 01 21:55:63
  TRACK 989 AUDIO
    TITLE "0:"
    INDEX 01 21:58:33
  TRACK 990 AUDIO
    TITLE "42:cjc023_7615"
    INDEX 01 21:58:57
  TRACK 991 AUDIO
    TITLE "0:"
    INDEX 01 22:00:60
  TRACK 992 AUDIO
    TITLE "40:cjc023_7616"
    INDEX 01 22:01:57
  TRACK 993 AUDIO
    TITLE "0:"
    INDEX 01 22:03:11
  TRACK 994 AUDIO
    TITLE "41:cjc023_7617"
    INDEX 01 22:03:62
  TRACK 995 AUDIO
    TITLE "0:"
    INDEX 01 22:06:21
  TRACK 996 AUDIO
    TITLE "42:cjc023_7618"
    INDEX 01 22:06:43
  TRACK 997 AUDIO
    TITLE "0:"
    INDEX 01 22:08:46
  TRACK 998 AUDIO
    TITLE "41:cjc023_7619"
    INDEX 01 22:09:20
  TRACK 999 AUDIO
    TITLE "0:"
    INDEX 01 22:12:18
  TRACK 1000 AUDIO
    TITLE "42:cjc023_7620"
    INDEX 01 22:12:41
  TRACK 1001 AUDIO
    TITLE "0:"
    INDEX 01 22:15:42
  TRACK 1002 AUDIO
    TITLE "40:cjc023_7621"
    INDEX 01 22:16:39
  TRACK 1003 AUDIO
    TITLE "0:"
    INDEX 01 22:17:45
  TRACK 1004 AUDIO
    TITLE "41:cjc023_7622"
    INDEX 01 22:18:15
  TRACK 1005 AUDIO
    TITLE "0:"
    INDEX 01 22:19:59
  TRACK 1006 AUDIO
    TITLE "42:cjc023_7623"
    INDEX 01 22:20:06
  TRACK 1007 AUDIO
    TITLE "0:"
    INDEX 01 22:22:10
  TRACK 1008 AUDIO
    TITLE "40:cjc023_7624"
    INDEX 01 22:23:08
  TRACK 1009 AUDIO
    TITLE "0:"
    INDEX 01 22:24:21
  TRACK 1010 AUDIO
    TITLE "41:cjc023_7625"
    INDEX 01 22:24:66
  TRACK 1011 AUDIO
    TITLE "0:"
    INDEX 01 22:26:45
  TRACK 1012 AUDIO
    TITLE "42:cjc023_7626"
    INDEX 01 22:26:67
  TRACK 1013 AUDIO
    TITLE "0:"
    INDEX 01 22:28:62
  TRACK 1014 AUDIO
    TITLE "41:cjc023_7627"
    INDEX 01 22:29:26
  TRACK 1015 AUDIO
    TITLE "0:"
    INDEX 01 22:31:27
  TRACK 1016 AUDIO
    TITLE "42:cjc023_7628"
    INDEX 01 22:31:49
  TRACK 1017 AUDIO
    TITLE "0:"
    INDEX 01 22:34:29
  TRACK 1018 AUDIO
    TITLE "41:cjc023_7629"
    INDEX 01 22:35:03
  TRACK 1019 AUDIO
    TITLE "0:"
    INDEX 01 22:36:46
  TRACK 1020 AUDIO
    TITLE "42:cjc023_7630"
    INDEX 01 22:36:67
  TRACK 1021 AUDIO
    TITLE "0:"
    INDEX 01 22:38:43
  TRACK 1022 AUDIO
    TITLE "40:cjc023_7631"
    INDEX 01 22:39:42
  TRACK 1023 AUDIO
    TITLE "0:"
    INDEX 01 22:40:38
  TRACK 1024 AUDIO
    TITLE "41:cjc023_7632"
    INDEX 01 22:41:10
  TRACK 1025 AUDIO
    TITLE "0:"
    INDEX 01 22:44:67
  TRACK 1026 AUDIO
    TITLE "42:cjc023_7633"
    INDEX 01 22:45:13
  TRACK 1027 AUDIO
    TITLE "0:"
    INDEX 01 22:47:42
  TRACK 1028 AUDIO
    TITLE "40:cjc023_7634"
    INDEX 01 22:48:39
  TRACK 1029 AUDIO
    TITLE "0:"
    INDEX 01 22:49:41
  TRACK 1030 AUDIO
    TITLE "41:cjc023_7635"
    INDEX 01 22:50:13
  TRACK 1031 AUDIO
    TITLE "0:"
    INDEX 01 22:52:72
  TRACK 1032 AUDIO
    TITLE "42:cjc023_7636"
    INDEX 01 22:53:19
  TRACK 1033 AUDIO
    TITLE "0:"
    INDEX 01 22:56:17
  TRACK 1034 AUDIO
    TITLE "41:cjc023_7637"
    INDEX 01 22:56:62
  TRACK 1035 AUDIO
    TITLE "0:"
    INDEX 01 22:58:73
  TRACK 1036 AUDIO
    TITLE "42:cjc023_7638"
    INDEX 01 22:59:19
  TRACK 1037 AUDIO
    TITLE "0:"
    INDEX 01 23:00:44
  TRACK 1038 AUDIO
    TITLE "41:cjc023_7639"
    INDEX 01 23:01:14
  TRACK 1039 AUDIO
    TITLE "0:"
    INDEX 01 23:04:11
  TRACK 1040 AUDIO
    TITLE "42:cjc023_7640"
    INDEX 01 23:04:32
  TRACK 1041 AUDIO
    TITLE "0:"
    INDEX 01 23:07:05
  TRACK 1042 AUDIO
    TITLE "40:cjc023_7641"
    INDEX 01 23:07:74
  TRACK 1043 AUDIO
    TITLE "0:"
    INDEX 01 23:09:14
  TRACK 1044 AUDIO
    TITLE "41:cjc023_7642"
    INDEX 01 23:09:59
  TRACK 1045 AUDIO
    TITLE "0:"
    INDEX 01 23:12:46
  TRACK 1046 AUDIO
    TITLE "42:cjc023_7643"
    INDEX 01 23:12:69
  TRACK 1047 AUDIO
    TITLE "0:"
    INDEX 01 23:15:42
  TRACK 1048 AUDIO
    TITLE "41:cjc023_7644"
    INDEX 01 23:16:12
  TRACK 1049 AUDIO
    TITLE "0:"
    INDEX 01 23:19:42
  TRACK 1050 AUDIO
    TITLE "42:cjc023_7645"
    INDEX 01 23:19:59
  TRACK 1051 AUDIO
    TITLE "0:"
    INDEX 01 23:23:26
  TRACK 1052 AUDIO
    TITLE "41:cjc023_7646"
    INDEX 01 23:23:73
  TRACK 1053 AUDIO
    TITLE "0:"
    INDEX 01 23:26:54
  TRACK 1054 AUDIO
    TITLE "42:cjc023_7647"
    INDEX 01 23:27:00
  TRACK 1055 AUDIO
    TITLE "0:"
    INDEX 01 23:29:24
  TRACK 1056 AUDIO
    TITLE "40:cjc023_7648"
    INDEX 01 23:30:20
  TRACK 1057 AUDIO
    TITLE "0:"
    INDEX 01 23:31:19
  TRACK 1058 AUDIO
    TITLE "41:cjc023_7649"
    INDEX 01 23:31:64
  TRACK 1059 AUDIO
    TITLE "0:"
    INDEX 01 23:34:45
  TRACK 1060 AUDIO
    TITLE "42:cjc023_7650"
    INDEX 01 23:34:67
  TRACK 1061 AUDIO
    TITLE "0:"
    INDEX 01 23:37:20
